<?xml version="1.0" encoding="UTF-8"?>
<svg id="_Слой_1" data-name="Слой 1" xmlns="http://www.w3.org/2000/svg" viewBox="0 0 666 649">
  <defs>
    <style>
      .cls-1 {
        fill: #663398;
      }

      .cls-1, .cls-2, .cls-3, .cls-4, .cls-5, .cls-6, .cls-7, .cls-8, .cls-9, .cls-10, .cls-11, .cls-12, .cls-13, .cls-14, .cls-15, .cls-16, .cls-17, .cls-18, .cls-19, .cls-20, .cls-21, .cls-22, .cls-23, .cls-24, .cls-25, .cls-26, .cls-27, .cls-28, .cls-29, .cls-30, .cls-31, .cls-32, .cls-33, .cls-34, .cls-35, .cls-36, .cls-37, .cls-38, .cls-39, .cls-40, .cls-41 {
        stroke-width: 0px;
      }

      .cls-2 {
        fill: #020202;
      }

      .cls-3 {
        fill: #aa8ec6;
      }

      .cls-4 {
        fill: #040404;
      }

      .cls-5 {
        fill: #7040a0;
      }

      .cls-6 {
        fill: #030303;
      }

      .cls-7 {
        fill: #e1e1e1;
      }

      .cls-8 {
        fill: #68359a;
      }

      .cls-9 {
        fill: #050505;
      }

      .cls-10 {
        fill: #ececec;
      }

      .cls-11 {
        fill: #010101;
      }

      .cls-12 {
        fill: #ddd2e8;
      }

      .cls-13 {
        fill: #eaf1e4;
      }

      .cls-14 {
        fill: #8f6ab3;
      }

      .cls-15 {
        fill: #669834;
      }

      .cls-16 {
        fill: #8962b0;
      }

      .cls-17 {
        fill: #f5f5f5;
      }

      .cls-18 {
        fill: #f6f3f8;
      }

      .cls-19 {
        fill: #b2cb99;
      }

      .cls-20 {
        fill: #d2d2d2;
      }

      .cls-21 {
        fill: #835bab;
      }

      .cls-22 {
        fill: #b298cb;
      }

      .cls-23 {
        fill: #595959;
      }

      .cls-24 {
        fill: #639;
      }

      .cls-25 {
        fill: #845cac;
      }

      .cls-26 {
        fill: #845bab;
      }

      .cls-27 {
        fill: #f4f4f4;
      }

      .cls-28 {
        fill: #669935;
      }

      .cls-29 {
        fill: #e8efe1;
      }

      .cls-30 {
        fill: #c6c6c6;
      }

      .cls-31 {
        fill: #6b3a9c;
      }

      .cls-32 {
        fill: #bca6d2;
      }

      .cls-33 {
        fill: #673599;
      }

      .cls-34 {
        fill: #845bac;
      }

      .cls-35 {
        fill: #b197ca;
      }

      .cls-36 {
        fill: #673499;
      }

      .cls-37 {
        fill: #eaeaea;
      }

      .cls-38 {
        fill: #f2f2f2;
      }

      .cls-39 {
        fill: #663499;
      }

      .cls-40 {
        fill: #67359a;
      }

      .cls-41 {
        fill: #669934;
      }
    </style>
  </defs>
  <path class="cls-1" d="M120.87,2.01c.06,12.65.12,25.3.18,37.95,0,1.83-.07,3.65.93,5.33,2.21,3.74,6.19,4.09,10.64.9,8.01-5.75,16.95-5.82,23.98-.21,8.26,6.61,9.82,17.87,3.63,26.29-6.15,8.37-17.53,10.33-26.23,4.52-.41-.28-.84-.56-1.2-.9-2.43-2.33-5.36-2.92-8.28-1.53-3.08,1.47-3.53,4.48-3.5,7.67.09,8.82.03,17.65.03,26.47,0,3.16-.07,6.33.02,9.49.06,1.94-.28,3.06-2.66,3.04-12.82-.09-25.64.08-38.46-.11-5.64-.08-8.24-5.69-4.85-10.39,2.9-4.02,5.04-8.13,4.98-13.24-.1-8.09-5.1-15.32-12.64-18.01-7.67-2.73-15.74-.49-21.2,5.89-4.97,5.81-5.83,14.69-2,21.48.73,1.29,1.66,2.49,2.59,3.65,1.7,2.14,2.28,4.45,1.1,6.97-1.27,2.69-3.5,3.74-6.48,3.73-13.49-.06-26.97-.02-40.46-.02V2c14.67,0,29.35,0,44.02,0,4.08,3.22,4.61,5.7,2,9.6-.65.97-1.44,1.84-2.04,2.84-4.08,6.73-4.24,13.6-.14,20.29,4,6.51,10.08,9.7,17.69,9.08,7.79-.63,13.49-4.79,16.33-12.1,2.75-7.06,1.42-13.64-3.32-19.66-3.15-4-2.59-6.76,1.47-10.02,14.61,0,29.23,0,43.84,0Z"/>
  <path class="cls-1" d="M210,1c6.52,20.05,13.02,40.11,19.57,60.15,6.09,18.63,12.25,37.24,18.37,55.86,1.29,3.92,1.25,3.97-2.87,3.98-9.16.03-18.32-.09-27.47.07-2.76.05-4.17-.53-4.75-3.56-.97-5.05-2.66-9.95-3.8-14.97-.61-2.68-1.68-3.82-4.67-3.77-10.65.2-21.31.17-31.97.02-2.7-.04-3.81.95-4.39,3.47-1.25,5.33-2.78,10.6-4.14,15.9-.52,2.03-1.47,2.94-3.79,2.91-9.82-.14-19.65-.14-29.47-.01-2.9.04-2.89-1.08-2.16-3.29,2.97-8.99,5.97-17.98,8.68-27.05.98-3.28,3.1-2.66,5.4-2.53,15.8.9,27.37-8.26,30.03-23.75,1.74-10.09-3.59-21.63-13.25-27-3.54-1.97-3.54-3.67-2.5-7.01,3.07-9.81,6.94-19.37,9.18-29.43,14.67,0,29.33,0,44,0ZM188.4,72.09c3.16,0,6.34-.15,9.49.04,2.95.18,3.21-.78,2.5-3.47-3.87-14.61-7.51-29.28-11.24-43.93-.18-.71.1-1.59-.73-2.07-.25.6-.61,1.18-.75,1.81-3.4,15.08-7.16,30.06-11.24,44.97-.56,2.03-.09,2.72,1.98,2.66,3.33-.08,6.66-.02,9.99-.02Z"/>
  <path class="cls-25" d="M483,1c0,38.3.02,76.61-.06,114.91,0,1.61,1.13,3.66-.98,4.93.01-37.99.03-75.99.04-113.98,0-4.82-.04-4.84-5.01-4.85-7.17-.02-14.34.15-21.49-.07-3.42-.11-4.59.86-4.58,4.45.14,38.16.11,76.32.13,114.48-1.9-.88-1.03-2.6-1.03-3.9-.04-38.65-.02-77.31,0-115.96h33Z"/>
  <path class="cls-34" d="M524,1c-.01,17.57-.05,35.14,0,52.71,0,1.37-.74,3.02.91,4.07-.46.92-1.26,1.39-1.65.21-.4-1.21-.27-2.62-.27-3.94-.01-15.8-.13-31.61.08-47.41.05-3.79-1.1-4.87-4.8-4.72-7.14.28-14.31.25-21.45,0-3.58-.12-4.91.72-4.9,4.63.16,38.09.11,76.19.13,114.28-2.11-1.27-.98-3.31-.98-4.92-.08-38.31-.06-76.61-.06-114.92h33Z"/>
  <path class="cls-5" d="M77.03,2.01c-.01-.34-.02-.68-.03-1.01,14.67,0,29.33,0,44,0-.04.34-.09.67-.13,1.01-14.61,0-29.23,0-43.84,0Z"/>
  <path class="cls-26" d="M254.89,1.96c.04-.32.08-.64.11-.96,14.67,0,29.33,0,44,0,0,.32,0,.64.01.95-14.71,0-29.42,0-44.13,0Z"/>
  <path class="cls-5" d="M45,1c0,.33.02.66.02.99-14.67,0-29.35,0-44.02,0,.08-2.22,1.75-.92,2.5-.93,13.83-.1,27.67-.07,41.5-.07Z"/>
  <path class="cls-26" d="M557.89,1.95c-.02-.32.01-.64.11-.95h35c.19.92.02,1.69-.88,2.15-1.34-1.86-3.32-1.1-5.03-1.12-9.73-.09-19.46-.07-29.2-.09Z"/>
  <path class="cls-21" d="M386,1c-.05.35-.1.69-.15,1.04-10.66-.03-21.32-.05-31.97-.08.04-.32.08-.64.12-.96,10.67,0,21.33,0,32,0Z"/>
  <path class="cls-35" d="M310,1c-.03.3,0,.58.11.86-1.68.01-3.36.03-5.04.04-.05-.3-.07-.6-.07-.91h5Z"/>
  <path class="cls-14" d="M305,1c0,.3.02.61.07.91-1.35.01-2.7.02-4.05.03,0-.31-.01-.62-.01-.94h4Z"/>
  <path class="cls-16" d="M301,1c0,.31,0,.62.01.94-.67,0-1.33.01-2,.02,0-.32-.01-.64-.01-.95h2Z"/>
  <path class="cls-1" d="M299.01,1.95c.67,0,1.33-.01,2-.02,1.35-.01,2.7-.02,4.05-.03,1.68-.01,3.36-.03,5.04-.04,6.68.53,13.18,1.84,19.27,4.72,10.25,4.86,15.15,13.23,15.18,24.37.03,11.45-4.63,20.25-15.36,25.3-.93.44-2.66.2-2.67,1.58-.01,1.12,1.52.99,2.41,1.35,18.91,7.62,24.46,31.96,10.84,47.59-8.47,9.72-19.77,13.53-32.04,13.97-16.64.6-33.32.17-49.98.29-2.39.02-3.39-.73-3.14-3.13.12-1.15.02-2.33.02-3.5,0-35.66,0-71.32.01-106.98,0-1.82.16-3.65.25-5.47,14.71,0,29.42,0,44.13,0ZM286.98,83.02c0,3.5.03,6.99-.01,10.49-.02,1.52.27,2.6,2.14,2.52,4.98-.2,10.01.54,14.94-.55,6.01-1.33,9.26-5.47,9.47-11.78.2-5.86-3.3-10.45-9.08-12.12-2.13-.62-4.28-.64-6.43-.62-3.47.03-7.86-1.44-10.16.56-2.39,2.08-.59,6.58-.87,10-.04.5,0,1,0,1.5ZM286.98,36.23c0,2.83.01,5.66,0,8.49,0,1.26.11,2.42,1.78,2.34,5.12-.25,10.34.83,15.36-.97,4.76-1.71,7.23-5.59,7.03-10.84-.18-4.63-2.38-7.1-7.51-8.66-1.95-.59-3.93-.69-5.92-.75q-10.74-.33-10.73,10.39Z"/>
  <path class="cls-1" d="M557.89,1.95c9.73.02,19.46,0,29.2.09,1.71.02,3.69-.74,5.03,1.12-10.21,15.96-20.11,32.13-30.79,47.76-3.87,5.66-3.82,9.51-.07,15.17,11.13,16.75,21.56,33.96,32.21,51.03.67,1.07,2.23,2.21,1.53,3.42-.66,1.14-2.43.44-3.7.45-9.32.05-18.64-.12-27.96.11-3.11.08-4.71-1.05-6.21-3.65-10.14-17.56-20.42-35.03-30.69-52.52-.54-.92-.88-2.67-2.1-2.29-1.13.35-.5,2.03-.5,3.1-.03,16.97-.12,33.95.05,50.92.04,3.48-.92,4.54-4.42,4.43-9.14-.28-18.3-.18-27.45-.23-.01-38.09.03-76.19-.13-114.28-.02-3.91,1.32-4.76,4.9-4.63,7.14.25,14.31.27,21.45,0,3.7-.14,4.85.93,4.8,4.72-.21,15.8-.09,31.61-.08,47.41,0,1.32-.13,2.73.27,3.94.39,1.18,1.19.71,1.65-.21,10.72-18.77,21.58-37.47,32.99-55.84Z"/>
  <path class="cls-1" d="M353.88,1.96c10.66.03,21.32.05,31.97.08.06,12.32.23,24.65.09,36.97-.04,3.45.93,4.52,4.43,4.47,8.82-.13,17.63.04,26.24,2.54,19.06,5.54,27.05,22.38,24.94,39.27-2.42,19.33-14.87,31.52-34.45,34.69-4.12.67-8.24,1.05-12.42,1.04-12.49-.04-24.99-.05-37.48.02-2.3.01-3.64-.26-3.63-3.16.13-38.47.15-76.95.2-115.43,0-.16.07-.32.11-.49ZM386.02,82.1c0,1,0,1.99,0,2.99q0,11.19,11.43,10.04c7.33-.74,11.35-4.75,11.76-11.72.44-7.56-2.81-11.87-10.14-13.7-3.29-.82-6.61-.42-9.91-.63-2.33-.15-3.3.62-3.18,3.07.16,3.31.04,6.64.04,9.96Z"/>
  <path class="cls-1" d="M422.92,603.85c.22,10.28.61,24.08,2.9,37.76.11.65.15,1.33.16,1.99,0,.49.06,1.33-.16,1.42-.78.32-1.08-.49-1.38-.98-3.02-5-5.51-10.26-7.36-15.81-5.1-15.27-5.7-31.05-4.95-46.91,1.22-25.68,7.34-49.97,21.16-71.98,3.73-5.94,7.87-11.56,12.82-16.55.99-1,2.1-1.73.15-2.98-13.36-8.64-18.77-22.21-21.65-36.82-5.32-27.01.34-51.21,21.44-70.01,32.36-28.84,78.42-29.51,112.21-2.3,15.43,12.43,27.22,27.29,32.14,46.9,5.26,20.99-2.02,40.05-19.14,52.79-13.58,10.1-28.54,9.43-43.93,7.58-.73-.09-1.97.01-1.78-1.14.14-.88,1.33-.72,2.09-.93,10.23-2.94,20.51-5.73,29.92-10.94,19.91-11.03,27.57-28.77,19.75-50.16-10.98-30.06-33.18-47.7-64.64-52.77-21.19-3.41-40.25,3.12-56.9,16.25-18.37,14.5-24.59,34.15-22.33,56.82.88,8.81,3.27,17.33,7.43,25.23,4.76,9.06,11.43,15.42,22.33,16.14,4.47.29,8.9,1.2,13.33,1.95.86.14,2.19.21,2.24,1.49.04,1.21-1.16,1.58-2.05,1.85-5.45,1.61-10.99,3.11-16.7,2.24-3.89-.6-6.14.94-8.29,3.89-12.45,17.1-20.46,36.12-24.65,56.78-3.06,15.06-4.28,30.3-4.15,49.2Z"/>
  <path class="cls-15" d="M598.95,512.06c1.44-.02,3.34-1.33,4.25.06,2.81,4.3,4.43,1.03,6.33-.72,10.55-9.75,18.39-20.99,20.02-35.77.61-5.54.36-10.94-1.13-16.32-.5-1.81-.95-2.52-2.94-1.32-3.37,2.04-7.2,1.8-10.56.31-6.11-2.71-11.6-6.49-16.32-11.32-2.33-2.39-2.42-4.52-1.44-7.97,3.9-13.65,11.41-25.43,18.23-37.59,1.2-2.13,2.53-4.08,4.81-5.55,3.4-2.19,6.38-2.1,9.8-.32,7.16,3.72,13.49,8.44,19.01,14.35,1.87,2,1.75,4.09.77,5.95-2.97,5.56-1.81,9.84,1.6,15.22,16.83,26.52,15.83,54.5,5.03,82.83-4.13,10.83-12.81,17.65-22.34,23.44-11.49,6.98-23.59,12.3-37.33,12.78-4.23.15-8.27-.61-12.23-1.99-1.88.17-3.21,1.53-3.82,2.92-2.04,4.69-5.33,5.7-10.33,5.91-11.46.48-21.56-2-29.99-10.04-.79-.76-1.75-.9-2.78-.76-1.19-.74-2.39-1.47-3.58-2.21-.58-4.32,2.32-4.88,5.52-5.11.99-1.12,1.95-.25,2.59.29,7.57,6.38,16.77,8.96,26.02,11.57,2.1.59,2.98.59,4.37-1.3,8.57-11.74,17.76-23.03,25.44-35.42.18-.18.24-.39.17-.64.6-.25,1.04-.61.93-1.34l-.1.1ZM637.05,471.84c-.22,3.29-.12,6.57-.75,9.9-2.89,15.32-11.44,27.06-22.93,36.95-3.83,3.3-7.33,7.44-13.14,7.4-.94,0-1.26.98-1.7,1.67-2.81,4.32-5.63,8.63-8.41,12.97-1,1.56-.66,2.44,1.36,2.36,3.15-.12,6.3.13,9.44-.56,12.22-2.69,23.02-8.43,33.27-15.38,7.26-4.92,12.8-11.34,15.35-19.71,3.96-13.01,6.95-26.16,5.62-40.06-1.15-12.03-5.69-22.78-10.64-33.49-.87-1.88-1.38-1.21-2.05.11-2.49,4.9-5.36,9.58-8.56,14.04-1.34,1.87-1.29,3.31-.39,5.39,2.52,5.84,4.08,11.95,3.53,18.43ZM620.6,450.01c1.19-.08,1.81-.78,2.32-1.7.8-1.46,1.58-2.92,2.45-4.33,5.4-8.77,10.78-17.54,15.13-26.91,1-2.15,1.14-3.49-1.08-4.9-3.92-2.49-7.7-5.2-11.47-7.91-2-1.43-3.04-1.75-4.34,1.11-4.46,9.83-9.37,19.45-14.64,28.89-4.22,7.56-4.19,7.6,3.55,12,2.59,1.47,5.21,2.92,8.07,3.75Z"/>
  <path class="cls-1" d="M451.04,120.86c-.02-38.16,0-76.32-.13-114.48-.01-3.59,1.16-4.56,4.58-4.45,7.16.22,14.33.05,21.49.07,4.97.01,5.01.03,5.01,4.85,0,37.99-.02,75.99-.04,113.98-10.31,0-20.61.01-30.92.02Z"/>
  <path class="cls-22" d="M133.09,367.96c11.62.49,23.11,2.34,34.66,3.54,12.86,1.34,25.71,2.9,38.53,4.57,14.67,1.91,29.45,2.31,44.16,3.73.5.05,1,.08,1.5.08,15.82-.16,31.61,1.82,47.41.92,18.89-1.07,37.9-.6,56.65-3.79,13.14-2.23,26.12-5,37.93-11.55,5.47-3.04,10.6-3.35,15.7.86,2.81,2.32,5.92,4.3,8.93,6.38.51.35,1.46.75,1.81.52.58-.37-.03-1.18-.07-1.81-.6-9.14-1.14-18.26,1.61-27.23.95-3.09,2.27-5.91,4.31-8.36,1.35-1.63,3.35-2.67,5.31-1.4,2.13,1.37.12,2.93-.44,4.31-1.83,4.5-3.19,9.09-3.13,14.01.09,7.48.07,14.91.81,22.41.98,10.04-.46,9.87-9.06,6.97-6.8-2.29-12.55-6.81-17.82-11.7-1.69-1.57-2.52-2.04-4.74-.37-9.64,7.28-21.01,10.51-32.61,12.97-15.48,3.29-31.17,4.35-46.95,5.24-18.15,1.03-36.29.97-54.42.49-16.91-.45-33.8-1.76-50.67-3.47-25.65-2.59-50.84-7.48-75.87-13.42-3.55-.84-7.03-1.99-10.54-3,2.14-1.79,4.7-.43,7.01-.92Z"/>
  <path class="cls-19" d="M597.94,513.95c-7.68,12.38-16.87,23.68-25.44,35.42-1.39,1.9-2.27,1.89-4.37,1.3-9.25-2.61-18.45-5.18-26.02-11.57-.63-.54-1.6-1.4-2.59-.29-.42-1.26-1.42-1.76-2.63-1.97-.03-.27-.01-.54.07-.8,3.03.47,4.87-.9,6.42-3.49,5.78-9.68,11.16-19.57,16.12-29.68,1.22-2.48,2.16-2.97,4.8-1.4,8.74,5.19,18.49,8.02,28.09,11.13,1.48.48,2.95.28,4.44.25.37.36.74.73,1.11,1.09Z"/>
  <path class="cls-24" d="M8.63,250c.07-15.75,14.29-32.32,28.78-34.63,14.55-2.32,26.96,11.89,22.16,26.78-4.65,14.43-15.1,24.24-30.06,27.92-10.02,2.47-17.62-3.12-19.74-13.27-.54-2.6-.88-5.24-1.14-6.79ZM54.15,236.18c0-9.27-6.55-15.16-15.8-14.32-3.43.31-6.47,1.66-9.15,3.63-8.29,6.1-13.69,14.37-14.64,24.51-.93,10,3.31,15.54,11.82,15.08,10.89-.59,27.09-16.52,27.77-27.4.03-.5,0-1,0-1.49Z"/>
  <path class="cls-28" d="M561.24,630.09c-4.05.11-7.96-.5-11.68-2.13-2.55-1.12-5.08-2.85-5.17-5.6-.11-3.36-2.29-4.5-4.34-6.13-5.3-4.22-9.76-9.04-11.21-15.98-1.2-5.7.02-10.69,4.78-14.22,2.37-1.76,2.62-2.61.2-4.55-4.45-3.58-7.33-8.11-6.96-14.19.4-6.62,4.58-11.33,11.1-12.07,3.89-.44,7.6.56,11.16,2.04,1.23.51,2.33,1.37,2.8,2.71.33.96.46,2.02-.43,2.76-.77.64-1.55.21-2.25-.29-2.48-1.8-5.37-1.52-8.18-1.62-3.15-.12-6.19.41-7.57,3.63-1.31,3.05-1.06,6.23.89,9.04,2.14,3.08,5.05,5.23,8.45,6.8,1.78.82,3.99,1.55,3.76,4.06-.23,2.51-2.61,2.74-4.44,3.38-8.88,3.11-11.05,9.84-5.23,17.32,4.03,5.18,8.89,9.25,15.84,10.38,3.78.61,8.15,1.26,8.69,6.64.13,1.31,1.52.97,2.45.97,3.32,0,6.03-1.65,8.78-3.21.92-.52,1.98-1.77,3.03-.75.85.83.44,2.24.13,3.35-1.09,3.91-3.81,6.02-7.66,7.04-2.31.61-4.61.57-6.92.63Z"/>
  <path class="cls-41" d="M596.83,512.86c-1.48.03-2.96.23-4.44-.25-9.61-3.11-19.35-5.94-28.09-11.13-2.64-1.57-3.58-1.07-4.8,1.4-4.97,10.11-10.34,20-16.12,29.68-1.55,2.59-3.39,3.96-6.42,3.49-2.73-1.95-2.55-4.63-1.3-7.12,6.1-12.19,12.94-23.97,20.35-35.41,1.77-2.73,4.36-3.67,7.34-2.06,9.84,5.31,20.46,8.7,30.84,12.68,3.68,1.41,5.9,3.65,4.77,7.92l.1-.1c-.34.08-.69.16-1.03.24-.39.22-.79.44-1.18.65Z"/>
  <path class="cls-11" d="M292.63,323c-2.99,0-6.01.23-8.98-.05-4.9-.48-6.83-2.83-6.36-7.63.43-4.47,1.12-8.91,1.74-13.36.21-1.53.64-3.18,2.62-2.96,1.9.21,1.45,1.96,1.47,3.19.05,3.66.1,7.33-.09,10.98-.14,2.71.7,4.09,3.6,3.84,1.32-.12,2.67-.08,3.99.02,1.93.16,2.44-.46,2.33-2.52-.21-3.81.04-7.65.19-11.48.07-1.78-.13-4.06,2.46-4.13,2.48-.07,2.66,2.24,2.97,3.96.67,3.79.52,7.64.16,11.45-.17,1.83.29,2.21,2.15,2.1,6.57-.38,6.6-.29,7.51-6.99.33-2.47.49-4.97.7-7.45.18-2.17.76-4.14,3.39-4,2.4.13,2.53,2.08,2.72,4.02.51,5.3-1.54,10.42-.69,15.82.43,2.69-2.72,3.56-5,3.92-5.58.88-11.19,1.68-16.88,1.25Z"/>
  <path class="cls-11" d="M89.66,311.63c.16-4.33.68-8.61,1.3-12.88.52-3.55,7.69-7.51,11.62-6.43,3.09.85,4.38,4.34,2.54,8.82-.97,2.38-.28,2.98,1.61,3.94,4.2,2.13,6.52,5.62,6.24,10.44-.27,4.63-3.69,6.69-7.35,8.58-5.34,2.76-10.09,2.1-14.51-1.93-1.13-1.03-1.37-2.25-1.42-3.56-.09-2.32-.02-4.65-.02-6.97ZM95.6,314.08c1.48,1.73-1.68,5.09,2.01,5.55,4.15.52,9.73-2.9,9.83-5.32.13-3.23-4.09-6.31-9.62-6.01-4.09.22-.5,4.06-2.22,5.79ZM96.27,300.78c.12.47-.54,2.17.66,1.95,2.21-.41,3.35-2.4,3.94-4.5.29-1.02-.43-1.41-1.39-1.43-2.52-.07-3.6,1.14-3.21,3.98Z"/>
  <path class="cls-11" d="M330.32,307.72v6.65c2.49-.59,3.34-2.95,4.83-4.58,3.03-3.33,5.58-7.04,7.41-11.2.8-1.83,1.88-3.25,4.14-2.64,1.98.54,2.33,2.2,2.26,3.96-.27,6.99-2.02,13.83-2.01,20.86,0,1.7-1.29,2.79-2.99,2.7-1.61-.08-2.83-1.06-2.99-2.8-.14-1.49,0-3-.14-4.49-.08-.89.76-2.23-.41-2.56-.95-.27-1.46,1.11-2.1,1.8-2.59,2.82-5.09,5.72-7.7,8.52-1.27,1.36-2.74,2.57-4.82,1.56-1.81-.87-1.89-2.52-1.89-4.26-.03-6.68.95-13.28,1.71-19.89.15-1.33.44-2.96,2.04-3.02,1.88-.06,2.31,1.55,2.38,3.16.1,2.16.2,4.32.29,6.21Z"/>
  <path class="cls-2" d="M384.94,310.63c0-2,.34-4.06-.06-5.97-1.33-6.34,2.71-9.49,7.1-12.42,2.56-1.72,6.65-1.09,8.78,1.1,2.52,2.59,3.22,7.16.81,10.09-2.1,2.55-2.16,3.49.75,5.53,5.78,4.05,5.32,11.29-.8,14.68-4.26,2.36-8.62,4.96-14.02,2.31-2.35-1.15-3.33-2.45-3.32-4.85.02-3.49,0-6.98,0-10.47h.76ZM389.96,308c-.02,2.47-.08,4.95-.05,7.42.09,7.2.13,7.26,6.77,4.44,1.87-.79,4.49-1.19,4.5-3.95.02-3.04-2.48-3.95-4.79-4.99-1.9-.85-4.34-.74-5.55-2.91-.05-2.27,1.71-2.95,3.31-3.81,1.75-.94,3.42-1.97,4.27-3.91.68-1.54.35-2.92-.68-4.12-.81-.93-1.84-1.27-3.1-.83-4.15,1.43-5.76,3.84-5.38,8.32.12,1.46-.01,2.98.7,4.35Z"/>
  <path class="cls-36" d="M260.98,253.77c0,5.09,0,9.09,0,13.08,0,1.58-.27,3.3-2.12,3.43-2.15.15-2.7-1.68-2.73-3.41-.1-5.66-.08-11.33-.13-16.99,0-.64.06-1.67-.27-1.85-.95-.53-1.39.52-1.91,1.08-1.47,1.58-2.87,3.25-4.36,4.81-3.33,3.48-3.5,3.45-6.33-.23-1.73-2.24-3.46-4.48-5.2-6.71-.4-.5-.79-1.32-1.5-1.01-.27.12-.27,1.19-.18,1.79.88,5.96.68,11.97.81,17.96.03,1.43.45,3.42-1.6,3.6-1.79.16-2.41-1.48-2.52-3.11-.64-8.98-.75-17.97.15-26.94.09-.87.36-1.76,1.2-2.01.91-.28,1.44.51,1.97,1.19,2.47,3.14,5.13,6.14,7.43,9.4,1.95,2.76,3.25,3.58,5.48.14,1.88-2.9,4.51-5.33,6.85-7.92.77-.86,1.66-1.82,2.96-1.48,1.73.45,1.43,1.99,1.48,3.29.19,4.32.38,8.65.52,11.88Z"/>
  <path class="cls-39" d="M213.07,253.09c-1.76,5.77-4.22,11.18-8.28,15.73-1.1,1.24-2.24,2.69-4.17,2.15-2.06-.58-2.66-2.31-2.76-4.27-.44-8.49-.12-16.94,1.01-25.37.13-1,.24-2.16,1.53-2.19,1.64-.03,1.71,1.36,1.71,2.49,0,6.32-.09,12.63-.07,18.95,0,.88-.6,2.27.53,2.58,1.09.3,1.41-1.16,1.9-1.93,3.46-5.38,4.88-11.59,7.11-17.47.92-2.43.99-6.51,4.85-5.72,3.22.66,2.52,4.28,2.54,6.83.06,7.65-.06,15.29-.12,22.94-.01,1.26.45,2.91-1.52,3.09-1.61.15-2.31-1.18-2.78-2.43-.91-2.41-.4-4.93-.4-7.41,1.54-3.29.57-6.79.84-10.19.02-.28-.08-.76-.25-.84-.63-.26-.79.36-1.04.74-.47.7-.79,1.44-.63,2.31Z"/>
  <path class="cls-2" d="M424.95,324.44c-7.33-.06-10.54-3.76-9.69-11.16,1.32-11.48,10.17-18.63,20.33-16.44,7.24,1.56,10.32,6.69,8.24,13.71-2.19,7.41-11.1,13.96-18.89,13.89ZM424.81,319.02c5.44.09,12.24-4.6,13.98-9.66,1.35-3.9-.11-6.36-4.29-7.22-6.39-1.32-12.44,3.26-14.36,10.87-1.05,4.14.35,5.94,4.67,6.01Z"/>
  <path class="cls-2" d="M14.01,303.52c0,.5-.1,1.03.02,1.49.48,1.86-1.98,4.87,2.22,5.31,4.38.45,6.83-.71,7.8-4.16.72-2.56,1.32-5.15,2.12-7.68.42-1.34,1.39-2.41,2.97-2.04,1.53.35,2.09,1.62,1.86,3.08-1.3,8.21-2.62,16.41-4.01,24.61-.24,1.45-1.31,2.38-2.81,2.32-1.84-.08-2.48-1.48-2.69-3.07-.11-.81,0-1.65.05-2.48.11-1.93,1.51-4.81.06-5.57-1.95-1.03-4.78-.4-7.24-.49-1.53-.06-1.34,1.1-1.46,2.04-.28,2.15-.56,4.29-.82,6.44-.2,1.64-.79,3.06-2.7,2.89-1.79-.16-2.39-1.6-2.52-3.22-.48-6.2.78-12.27,1.47-18.38.28-2.48.59-4.96,1.07-7.4.24-1.26.68-2.83,2.41-2.62,1.53.18,2.11,1.51,2.14,2.95.05,2,.01,3.99.01,5.99h.03Z"/>
  <path class="cls-33" d="M106.94,249c.06,6.34-.93,12.58-1.91,18.82-.28,1.8-.5,4.18-2.85,3.92-2.73-.3-2.28-2.92-2.08-4.82.7-6.6,1.55-13.19,2.34-19.79.12-.99.16-2,.38-2.96.56-2.44-1.1-5.72,1.98-7.18,3.41-1.62,12.07.56,14.06,3.12.99,1.27,1.55,2.77.7,4.16-1.19,1.95-.75,2.88.97,4.42,5.2,4.64,5.02,11.47-.15,16.12-2.76,2.48-5.91,4.35-9.76,4.52-1.56.07-3.11-.29-3.43-2.14-.31-1.76,1.11-2.25,2.41-2.6,2.76-.75,5.33-1.85,7.54-3.7,2.21-1.85,3.46-3.99,2.29-6.99-1.07-2.73-3.1-3.78-5.89-3.51-1.5.15-3.2.64-3.63-1.43-.45-2.18,1.71-2.06,2.89-2.73,1.59-.9,3.95-1.92,3.01-3.85-1.18-2.43-4.16-2.29-6.66-2.36-2.63-.07-2.22,1.87-2.23,3.5-.01,1.83,0,3.66,0,5.49Z"/>
  <path class="cls-2" d="M253.05,320.43c-2.73-.51-4.95.06-6.75,2.26-.82,1-2.08,1.81-3.44.48-1.06-1.04-.76-2.11-.03-3.14,1.39-1.98,2.47-4.06,4.27-5.9,3.96-4.03,6.71-9.06,8.69-14.42.7-1.89,1.14-4.1,3.75-3.92,2.94.2,3.04,2.72,3.25,4.83.47,4.63.74,9.29,1.15,13.92.28,3.15.67,6.31,2.18,9.15.84,1.57.83,2.95-.67,3.9-1.38.88-2.95.69-4.14-.47-.82-.79-1.83-1.78-1.98-2.79-.58-3.98-2.94-4.75-6.28-3.93ZM255.33,315.32c1.82.22,1.99-.87,1.76-2.08-.11-.61.41-1.98-.79-1.66-1.19.32-1.92,1.62-2.17,2.87-.19.95.78.72,1.2.87Z"/>
  <path class="cls-2" d="M165.68,323.2c-9.16-.06-14.18-6.64-12.01-15.13,2.14-8.36,7.73-12.86,15.16-12.28,2.48.19,4.61.88,5.68,3.33,1.1,2.52-.08,4.63-1.69,6.36-2.99,3.21-6.52,5.69-10.92,6.59-2.91.6-2.26,1.92-.7,3.28,2.08,1.82,4.91,1.89,7.35,2.88,1.43.58,3.93.74,3.78,2.43-.13,1.41-2.5,1.91-4.13,2.27-.97.21-1.98.22-2.51.27ZM160.87,306.03c-.67.36-1,.96-.46,1.52.56.57,1.15.19,1.56-.41,1.61-1.07,3.26-2.09,4.8-3.25.53-.4,1.63-.92.96-1.83-.53-.72-1.52-.29-2.28-.11-2.23.55-3.41,2.31-4.58,4.07Z"/>
  <path class="cls-2" d="M480.75,321.15c.9-6.41,1.68-12.84,2.74-19.22.87-5.23,1.79-5.9,7.55-6.77,4.19-.63,7.17.78,9.19,4.38,4.09,7.28.43,15.22-8.34,16.13-4.52.47-4.51,2.62-4.78,5.6-.09.99-.08,2-.26,2.98-.31,1.73-1.05,3.41-3.03,3.36-1.92-.05-2.79-1.57-2.88-3.44-.04-.99,0-1.99,0-2.99-.06,0-.13-.02-.19-.02ZM488.44,305.69c-.33,4.51.07,4.82,4.01,3.07.89-.4,1.73-.94,2.54-1.49,1.69-1.16,1.37-2.89,1.04-4.48-.37-1.8-1.57-2.66-3.49-2.88-5.19-.6-3.5,3.42-4.1,5.79Z"/>
  <path class="cls-33" d="M132.97,257.33c.29-5.83,2.14-11.07,6.15-15.4,2.75-2.96,6.09-4.6,10.25-3.94,2.42.39,4.53,1.43,5.45,3.83.94,2.45-.1,4.58-1.81,6.35-2.86,2.96-6.44,4.74-10.38,5.62-2.18.49-4.52.46-4.29,3.55.21,2.84.51,5.68,3.85,6.89,2.47.89,4.89.57,7.38.23,1.14-.15,2.85-1.17,3.39.65.42,1.42-.94,2.41-2.06,3.11-3.82,2.37-7.9,2.59-11.91.73-3.99-1.85-5.79-5.3-6.01-9.62-.03-.66,0-1.33,0-2ZM151.07,243.89c-.08-1.05-1.21-1.19-2.11-1.38-2.13-.45-3.97.46-5.32,1.94-1.58,1.73-4.37,3.71-3.01,5.98.75,1.25,3.81-.72,5.67-1.65,1.31-.65,2.47-1.62,3.65-2.52.66-.5,1.15-1.17,1.12-2.37Z"/>
  <path class="cls-33" d="M531.11,411.99c-.51,3.94-.87,7.9-1.58,11.81-.65,3.59-3.04,5.44-6.16,5.24-3.25-.21-5.43-2.63-5.27-6.57.26-6.12.78-12.23,1.37-18.33.27-2.76,1.3-5.44,4.52-5.73,3.25-.29,4.3,2.23,5.36,4.86,1.16,2.85,1.77,5.67,1.75,8.73Z"/>
  <path class="cls-2" d="M56.83,321.83c.06,1.66-.36,2.88-1.93,3.22-1.97.43-3.57-.67-3.79-2.36-.58-4.42-3.6-3.7-6.55-3.76-1.87-.04-2.63,1.02-3.41,2.33-.69,1.16-1.5,2.51-3.08,1.65-1.8-.98-.99-2.54-.39-3.91,1.98-4.55,3.96-9.09,5.97-13.63,1.14-2.57,2.25-5.15,3.51-7.67.69-1.37,1.83-2.54,3.48-2.44,1.83.11,2.85,1.39,3.47,3.1,1.33,3.66,1.12,7.52,1.54,11.3.46,4.11-.03,8.31,1.17,12.16ZM49.63,310.6c-.35-1.12-.12-3.58-1.04-2.98-1.4.93-2.01,3.25-2.65,5.09-.54,1.57.89,1.42,1.8,1.42,2.89.02,1.63-2.19,1.89-3.54Z"/>
  <path class="cls-6" d="M451.84,311.17c0-2.33-.07-4.67.02-7,.12-3.44,1.89-5.45,5.2-5.2,4,.3,7.99.14,11.97.13,2.67,0,4.16,1.09,4.19,3.76.06,5.84-.3,11.66-.96,17.46-.19,1.66-.9,2.99-2.71,3.02-2.02.03-2.93-1.5-3.23-3.23-.64-3.68.69-7.28.65-10.93-.02-1.72,1.93-4.41-2.16-4.65-6.49-.37-7.36-.15-7.61,4.01-.2,3.32-.1,6.66-.13,9.99-.01,1.83-.46,3.5-2.67,3.37-1.82-.1-2.37-1.58-2.38-3.24,0-2.5,0-5,0-7.5-.06,0-.13,0-.19,0Z"/>
  <path class="cls-2" d="M505.95,311.82c-.22-6.95,3.69-11.63,9.86-11.82,6.73-.21,12.65,4.35,12.86,9.91.22,5.89-6.44,12.43-13.04,12.79-6.33.35-9.43-3.13-9.67-10.88ZM511.41,313.57c-.84,2.88,1.12,3.68,4.09,3.49,3.82-.24,8.07-4.09,7.74-7.04-.26-2.34-3.24-4.15-6.58-4-3.57.16-5.48,2.65-5.25,7.55Z"/>
  <path class="cls-2" d="M138.54,315.06c.5-.05,1-.17,1.49-.13,1.49.13,3.65-1.49,4.31.77.53,1.81-.91,3.38-2.49,4.5-3.82,2.72-12.13,2.42-16.06-.6-3.77-2.9-4.77-8.2-2.57-13.63,2.45-6.07,8.88-9.88,15.15-8.91,2.52.39,4.8,1.36,6.31,3.57.49.72.55,1.6-.06,2.29-.45.51-1.11.6-1.81.32-.92-.37-1.85-.79-2.82-.97-3.11-.57-5.95.08-8.31,2.27-2.38,2.21-3.52,5.05-2.53,8.11.97,3.03,4.03,2.3,6.41,2.53.99.1,1.99.02,2.98.02,0-.05,0-.09,0-.14Z"/>
  <path class="cls-2" d="M547.33,321.05c-9.28-.09-13.66-5.88-11.21-14.84,1.42-5.19,6.21-10.07,10.3-10.42,1.49-.13,3.18-.3,3.84,1.46.75,2.01-.76,2.53-2.29,3.01-.61.19-1.18.6-1.7,1-2.77,2.13-4.97,7.79-3.98,10.19.93,2.25,4.89,3,9.53,1.75,2.24-.6,4.42-1.44,6.67-1.95,2.43-.55,3,.62,2.17,2.79-1.59,4.11-7.19,7.07-13.33,7.01Z"/>
  <path class="cls-2" d="M576.06,297.34c-.09,1.87-.06,2.88-.21,3.86-.29,1.93-.12,2.86,2.42,2.93,4.21.11,6.24,2.6,6.77,7.09.61,5.16-.66,7.23-4.99,8.96-2.73,1.09-5.68.88-8.45,2.42-2.51,1.39-3.86-1.23-3.56-3.68.63-5.27,1.44-10.53,2.37-15.75.58-3.26,1.49-6.46,2.31-9.67.28-1.08.39-2.57,1.93-2.48,1.66.1,1.33,1.64,1.4,2.72.09,1.49.02,2.99.02,3.61ZM574.66,312.04c.32,1.25-.76,3.15,1.62,2.82,1.75-.25,3.64-.61,3.62-3.12-.02-2.23-.69-4.06-3.21-3.97-3.45.12-.73,3.18-2.03,4.28Z"/>
  <path class="cls-6" d="M222.38,295.13c1.59-.41,3.15-.99,4.77-1.19,5.64-.71,8.1,2.17,5.51,7.19-1.64,3.17-.81,4.01,1.69,5.77,5.68,3.98,5.65,11.48.02,15.47-3.56,2.53-7.36,5.35-12.18,2.56-.68-3.34.66-5.11,4.09-5.06,1.43.02,2.57-.64,3.71-1.26,1.91-1.03,3.89-2.14,3.23-4.9-.63-2.63-2.37-3.75-5.03-3.92-1.74-.11-3.66.76-5.2-.74,0-1.29.01-2.58.02-3.86,1.4-1.16,2.89-2.22,4.17-3.51.89-.9,2.25-2.1,1.49-3.35-.55-.91-2.18-.4-3.26.02-3.68,1.41-4.26-.03-3.02-3.21Z"/>
  <path class="cls-8" d="M80.11,236.18c2.67,0,5.33-.04,8,.02,1.41.03,2.77.46,2.85,2.15.09,1.88-1.23,2.55-2.88,2.77-.17.02-.34,0-.5.04-2.49.54-5.87-1.37-7.34,1.15-1.11,1.91-.34,4.87-.49,7.36-.33,5.32-.52,10.66-1.19,15.94-.25,2.01.21,5.67-3.01,5.31-2.63-.3-1.78-3.55-1.7-5.57.3-6.82.59-13.66,1.33-20.44.33-3.04-.13-4.15-3.39-4.03-2.28.09-6.24.88-6.3-2.08-.06-3.19,3.96-1.76,6.16-2.17,2.76-.51,5.64-.41,8.46-.57,0,.04,0,.08,0,.13Z"/>
  <path class="cls-40" d="M461.96,427.99c0-5.44-1.44-10.87.03-16.31.75-2.79,1.95-5.06,5.27-4.96,3.24.1,4.72,2.24,5.09,5.15.81,6.46.67,12.88-1.12,19.2-4.44,2.54-4.78,2.46-8.01-1.6-.4-.5-.84-.98-1.25-1.47Z"/>
  <path class="cls-40" d="M174.82,236.96c3.66,0,7.31-.03,10.97.01,1.54.02,3.23.17,3.16,2.25-.05,1.81-1.63,1.79-2.96,1.89-.33.02-.66.01-1,.03-8.58.41-8.61.41-8.88,9.33-.19,5.98-.29,11.96-.39,17.95-.03,1.67.32,3.68-2.07,3.75-2.08.07-2.68-1.68-2.81-3.45-.6-8.17.15-16.29,1.57-24.31.5-2.84-.18-3.49-2.79-3.5-2.31,0-4.62-.41-6.93-.7-.8-.1-1.77-.24-1.83-1.3-.07-1.31,1.01-1.69,1.98-1.71,3.99-.08,7.97-.03,11.96-.03,0-.07,0-.13,0-.2Z"/>
  <path class="cls-9" d="M597.95,304.57c-.34,4.63-.66,9.26-1.05,13.89-.08.97-.43,1.93-.73,2.87-.46,1.43-1.56,2.24-2.98,2.2-1.69-.05-2.76-1.23-3.02-2.81-.23-1.46-.2-2.99-.07-4.46.64-7.27,1.34-14.53,2.06-21.79.11-1.15.45-2.28.66-3.42.19-1.05.62-2.04,1.75-2.13,1.47-.12,2.04,1.14,2.18,2.26.57,4.44,1.26,8.88,1.21,13.39Z"/>
  <path class="cls-4" d="M223,305.19c0,1.29-.01,2.58-.02,3.86-2.13-.28-1.69,1.26-1.81,2.49-.42,4.5.55,9.1-1.02,13.5-4.13,1.2-5.82.27-5.64-3.71.31-6.6,1.02-13.18,1.62-19.76.21-2.29,1.56-3.14,3.8-2.54.97,1.7,1.08,3.58,1.14,5.48.06,1.88,1.24.59,1.93.68Z"/>
  <path class="cls-28" d="M537.58,546.14c1.03-.13,1.99,0,2.78.76,8.43,8.04,18.53,10.51,29.99,10.04,5-.21,8.3-1.22,10.33-5.91.6-1.39,1.93-2.75,3.82-2.92-2.4,3.39-4.72,6.83-7.22,10.14-2.01,2.66-4.4,4.3-7.43,1.29-.82-.81-1.65-.71-2.69-.69-11.77.24-21.75-3.75-29.58-12.71Z"/>
  <path class="cls-38" d="M223,305.19c-.69-.09-1.88,1.2-1.93-.68-.06-1.89-.17-3.78-1.14-5.48,1.76-.71.16-3.53,2.45-3.9-1.24,3.18-.66,4.62,3.02,3.21,1.08-.41,2.7-.93,3.26-.02.76,1.25-.61,2.46-1.49,3.35-1.27,1.29-2.77,2.35-4.17,3.51Z"/>
  <path class="cls-41" d="M536.89,536.85c1.21.22,2.21.71,2.63,1.97-3.2.24-6.1.8-5.52,5.11-2.04-.57-2.4-2.14-2.01-3.85.58-2.53,2.65-3.07,4.9-3.23Z"/>
  <path class="cls-31" d="M461.96,427.99c.42.49.85.96,1.25,1.47,3.23,4.07,3.57,4.14,8.01,1.6-.52,2.96-2.67,3.55-5.07,3.05-3.17-.66-4.38-2.99-4.19-6.12Z"/>
  <path class="cls-3" d="M213.07,253.09c-.17-.87.15-1.62.63-2.31.26-.38.41-1,1.04-.74.17.07.27.55.25.84-.27,3.4.71,6.9-.84,10.19-.85-2.59.91-5.54-1.08-7.98Z"/>
  <path class="cls-32" d="M133.09,367.96c-2.31.49-4.87-.86-7.01.92-1.35-.3-2.69-.61-4.04-.91.37-.91,1.24-.92,2.01-1.09,2.99.51,6.19-.71,9.03,1.08Z"/>
  <path class="cls-12" d="M124.06,366.88c-.78.17-1.64.18-2.01,1.09-.61-.13-1.27-.16-1.82-.41-.52-.25-1.48-.38-1.31-1.13.15-.65,1.03-.44,1.6-.42,1.24.04,2.58-.28,3.55.87Z"/>
  <path class="cls-19" d="M637.05,471.84c.55-6.48-1-12.59-3.53-18.43-.9-2.08-.95-3.52.39-5.39,3.2-4.46,6.07-9.14,8.56-14.04.67-1.31,1.19-1.98,2.05-.11,4.95,10.72,9.49,21.46,10.64,33.49,1.33,13.9-1.66,27.05-5.62,40.06-2.55,8.37-8.09,14.79-15.35,19.71-10.25,6.95-21.05,12.69-33.27,15.38-3.14.69-6.29.43-9.44.56-2.02.08-2.36-.8-1.36-2.36,2.78-4.34,5.6-8.65,8.41-12.97.44-.68.76-1.67,1.7-1.67,5.8.04,9.31-4.11,13.14-7.4,11.49-9.88,20.04-21.63,22.93-36.95.63-3.33.53-6.61.75-9.9Z"/>
  <path class="cls-19" d="M620.6,450.01c-2.86-.83-5.48-2.28-8.07-3.75-7.73-4.4-7.77-4.44-3.55-12,5.27-9.43,10.18-19.06,14.64-28.89,1.29-2.85,2.34-2.54,4.34-1.11,3.77,2.71,7.55,5.42,11.47,7.91,2.22,1.41,2.08,2.75,1.08,4.9-4.36,9.36-9.73,18.14-15.13,26.91-.87,1.41-1.66,2.87-2.45,4.33-.5.92-1.13,1.62-2.32,1.7Z"/>
  <path class="cls-29" d="M596.83,512.86c.39-.22.79-.44,1.18-.65.03.37.07.74.1,1.11.07.25.02.46-.17.64-.37-.36-.74-.73-1.11-1.09Z"/>
  <path class="cls-13" d="M598.11,513.31c-.03-.37-.07-.74-.1-1.11.34-.08.69-.16,1.03-.24.11.74-.33,1.1-.93,1.34Z"/>
  <path class="cls-20" d="M96.27,300.78c-.39-2.84.7-4.05,3.21-3.98.96.03,1.68.42,1.39,1.43-.59,2.1-1.73,4.09-3.94,4.5-1.2.22-.55-1.48-.66-1.95Z"/>
  <path class="cls-27" d="M390.85,308.01h-.44s-.44,0-.44,0c-.71-1.37-.57-2.89-.7-4.35-.38-4.48,1.23-6.89,5.38-8.32,1.26-.44,2.29-.1,3.1.83,1.04,1.2,1.36,2.58.68,4.12-.85,1.94-2.52,2.98-4.27,3.91-1.6.85-3.36,1.54-3.31,3.81Z"/>
  <path class="cls-7" d="M255.33,315.32c-.42-.15-1.39.08-1.2-.87.25-1.26.98-2.56,2.17-2.87,1.2-.32.68,1.05.79,1.66.22,1.22.05,2.3-1.76,2.08Z"/>
  <path class="cls-37" d="M160.87,306.03c1.17-1.76,2.35-3.52,4.58-4.07.76-.19,1.75-.61,2.28.11.67.91-.43,1.43-.96,1.83-1.54,1.16-3.19,2.18-4.8,3.25l.19-.21-.14-.24c-.17-.28-.39-.52-.66-.71l-.26-.16-.23.2Z"/>
  <path class="cls-23" d="M161.98,307.14c-.4.6-1,.99-1.56.41-.55-.56-.21-1.17.46-1.52l.23-.2.26.16c-.3.72-.02.9.66.71l.14.24-.19.21Z"/>
  <path class="cls-17" d="M488.44,305.69c.6-2.37-1.08-6.39,4.1-5.79,1.92.22,3.11,1.09,3.49,2.88.33,1.59.65,3.32-1.04,4.48-.81.56-1.65,1.09-2.54,1.49-3.94,1.75-4.34,1.45-4.01-3.07Z"/>
  <path class="cls-18" d="M151.07,243.89c.03,1.19-.46,1.87-1.12,2.37-1.18.89-2.34,1.86-3.65,2.52-1.86.93-4.92,2.89-5.67,1.65-1.36-2.27,1.43-4.25,3.01-5.98,1.35-1.48,3.19-2.38,5.32-1.94.9.19,2.03.33,2.11,1.38Z"/>
  <path class="cls-30" d="M49.63,310.6c-.26,1.35,1,3.56-1.89,3.54-.91,0-2.34.14-1.8-1.42.64-1.84,1.24-4.17,2.65-5.09.91-.6.69,1.85,1.04,2.98Z"/>
  <path class="cls-10" d="M574.66,312.04c1.3-1.1-1.42-4.17,2.03-4.28,2.52-.08,3.19,1.75,3.21,3.97.02,2.51-1.87,2.88-3.62,3.12-2.38.34-1.31-1.57-1.62-2.82Z"/>
</svg>