<?xml version="1.0" encoding="UTF-8"?>
<svg id="_Слой_1" data-name="Слой 1" xmlns="http://www.w3.org/2000/svg" viewBox="0 0 27.6 24">
  <defs>
    <style>
      .cls-1 {
        fill: #fefefe;
      }

      .cls-1, .cls-2 {
        stroke-width: 0px;
      }

      .cls-2 {
        fill: #a7a7a7;
      }
    </style>
  </defs>
  <path class="cls-2" d="M.02,11.64v-1.19c.32-.68.86-1.06,1.56-1.35C8.53,6.34,15.47,3.57,22.42.81c1.13-.45,2.35-.67,3.59-.69.93-.01,1.39.33,1.35,1.33-.06,1.58-.13,3.17-.46,4.7-1.11,5.34-2.21,10.68-3.28,16.02-.21,1.04-.78,1.57-1.75,1.8h-.71c-1.54-.38-2.74-1.35-3.92-2.32-.64-.53-1.33-1-1.98-1.51-.57-.45-1.06-.41-1.57.09-.64.64-1.28,1.29-1.94,1.92-.45.42-.93.81-1.58.51-.67-.31-.58-.9-.55-1.53.07-1.42.21-2.83.27-4.25.04-1.04.41-1.8,1.17-2.46,3.25-2.82,6.27-5.89,9.52-8.71-1.54,1.24-3.24,2.24-4.9,3.31-2.49,1.6-4.99,3.19-7.45,4.85-.83.56-1.63.69-2.57.36-1.42-.5-2.84-.97-4.28-1.42-.65-.2-1.1-.58-1.38-1.19Z"/>
  <path class="cls-1" d="M21.88,23.98c.69-.42.99-1.05,1.15-1.82,1.32-6.5,2.68-13,4.01-19.5.16-.77.42-1.65-.34-2.2-.66-.48-1.43-.17-2.14.12C16.84,3.66,9.13,6.73,1.42,9.81c-.48.19-.93.43-1.4.64,0-3.28.01-6.57-.02-9.85C0,.1.11,0,.62,0,9.41.02,18.2.02,26.99,0c.51,0,.61.1.61.61-.02,7.59-.02,15.19,0,22.78,0,.51-.1.62-.61.61-1.7-.04-3.41-.02-5.11-.02Z"/>
  <path class="cls-1" d="M.02,11.64c2.09.95,4.34,1.47,6.48,2.27.5.19.83-.11,1.19-.34,4.37-2.85,8.74-5.7,13.11-8.55.41-.27.79-.7,1.38-.45.09.47-.3.61-.54.84-3.47,3.24-6.93,6.48-10.41,9.7-.51.47-.75.93-.78,1.62-.05,1.54-.2,3.07-.3,4.61-.02.33-.29.77.12.97.42.2.72-.2,1-.47.82-.8,1.65-1.59,2.43-2.43.45-.47.78-.62,1.37-.14,2,1.6,4.06,3.14,6.09,4.71-6.79,0-13.58,0-20.36.02-.62,0-.81-.08-.81-.77.04-3.86.02-7.72.02-11.59Z"/>
</svg>