<?xml version="1.0" encoding="UTF-8"?>
<svg id="_Слой_1" data-name="Слой 1" xmlns="http://www.w3.org/2000/svg" viewBox="0 0 39.84 24.24">
  <defs>
    <style>
      .cls-1 {
        fill: #ececec;
      }

      .cls-1, .cls-2 {
        stroke-width: 0px;
      }

      .cls-2 {
        fill: #a7a7a7;
      }
    </style>
  </defs>
  <path class="cls-2" d="M.24,2.85c0-.4,0-.79,0-1.19.36-.26.74-.46,1.2-.46,1.83,0,3.66-.02,5.49-.01.83,0,1.41.41,1.74,1.2.5,1.21,1.03,2.4,1.58,3.59.87,1.86,1.74,3.74,3.18,5.27.91.97,1.74.83,2.06-.44.43-1.69.58-3.43.4-5.18-.17-1.7-.19-3.5-2.47-3.91.51-.95,1.18-1.25,2.05-1.24,1.83,0,3.66,0,5.49,0,2.19,0,2.52.31,2.51,2.55,0,2.14-.04,4.28-.07,6.41,0,.56.04,1.11.28,1.62.4.83.9.95,1.57.33.58-.54,1.1-1.13,1.53-1.81,1.41-2.25,2.75-4.54,3.59-7.08.22-.67.56-1.26,1.39-1.26,2.31-.02,4.61-.03,6.92-.04.69,0,.92.34.97,1.04.1,1.23-.34,2.23-.96,3.23-1.43,2.29-3.06,4.43-4.59,6.65-.92,1.33-.86,1.94.24,3.15.48.53,1.01,1.01,1.49,1.53,1.25,1.33,2.56,2.61,3.5,4.19,1.01,1.68.31,2.96-1.6,3-1.11.02-2.23.04-3.34.05-.72-.07-1.45-.06-2.17.02-1.22-.23-2.21-.85-3.01-1.78-.88-1.02-1.73-2.07-2.66-3.03-1.12-1.15-2.13-.91-2.71.59-.32.82-.4,1.68-.42,2.56-.03,1.11-.41,1.47-1.5,1.58-4.69.5-8.6-1.09-11.76-4.48-2.81-3-4.88-6.52-6.73-10.16C2.3,7.2,1.29,5.02.24,2.85Z"/>
  <path class="cls-1" d="M32.21,24.24c0-.06-.01-.12-.01-.18.72-.07,1.45-.09,2.17-.02,0,.07,0,.13-.01.2h-2.15Z"/>
</svg>