<?xml version="1.0" encoding="UTF-8"?>
<svg id="_Слой_1" data-name="Слой 1" xmlns="http://www.w3.org/2000/svg" viewBox="0 0 24.24 24.24">
  <defs>
    <style>
      .cls-1 {
        fill: #e0e0e0;
      }

      .cls-1, .cls-2 {
        stroke-width: 0px;
      }

      .cls-2 {
        fill: #a7a7a7;
      }
    </style>
  </defs>
  <path class="cls-2" d="M.95,24.24h-.48c.6-2.08,1.19-4.16,1.8-6.28C-.52,11.83.57,6.29,5.32,2.65c4.32-3.3,10.5-3.16,14.78.32,2.18,1.77,3.3,4.18,4.14,6.77v4.04c-.07.24-.14.48-.21.73-1.76,6.76-8.37,10.86-14.77,8.61-3.23-1.13-5.62.21-8.31,1.11ZM9.56,6.26c-2.14-.13-2.8,1.1-2.9,2.69-.22,3.53,5.43,9.02,9.12,8.84,1.65-.08,2.89-.81,2.75-2.89-.94-.49-1.88-.97-3.06-1.58-.41.64-.8,1.24-1.17,1.8-2.27-.9-3.77-2.18-4.64-4.18.39-.56.74-1.07,1.1-1.58-.41-1.06-.79-2.05-1.19-3.1Z"/>
  <path class="cls-1" d="M24.24,14.5c-.07.01-.14.02-.21.01.07-.24.14-.48.21-.73v.71Z"/>
</svg>