<?xml version="1.0" encoding="UTF-8"?>
<svg id="_Слой_1" data-name="Слой 1" xmlns="http://www.w3.org/2000/svg" viewBox="0 0 138 142">
  <defs>
    <style>
      .cls-1 {
        fill: #060606;
      }

      .cls-1, .cls-2, .cls-3, .cls-4, .cls-5 {
        stroke-width: 0px;
      }

      .cls-2 {
        fill: #040404;
      }

      .cls-3 {
        fill: #030303;
      }

      .cls-4 {
        fill: #050505;
      }

      .cls-5 {
        fill: #ababab;
      }
    </style>
  </defs>
  <path class="cls-3" d="M1,128c4.09-4.76,7.24-5.68,13-3.75-1.14,2.13-5.64,2.18-4.84,4.16,1.22,3.02,5.38,2.75,8.35,3.28,22.28,4.01,44.74,4.18,67.26,2.87,10.12-.59,20.23-1.15,30.07-3.81.1-2.53-3.19-1.85-3.36-3.95.2-.22.39-.63.58-.63,3.84-.03,9.16-1.68,10.07,3.5.88,5.02-4.46,6.02-8.2,6.93-6.83,1.66-13.78,2.81-20.69,4.17-.84-1.67-2.33-.91-3.52-.83-19.57,1.28-39.13.81-58.69-.02-4.38-.67-8.8-1.18-13.14-2.06-6.23-1.26-12.72-2.11-16.89-7.86v-2Z"/>
  <path class="cls-5" d="M43,142c-3.76-2.05-8.28.32-11.97-2.08,19.56.82,39.13,1.3,58.69.02,1.19-.08,2.68-.85,3.52.83-2.38.65-5.05-.44-7.25,1.24h-43Z"/>
  <path class="cls-3" d="M96.89,75.77c-3.1,0-6.08-.07-9.06.03-1.54.05-2.06-1.05-2.4-2.04-.57-1.69.92-1.84,2.02-2.05,8.67-1.6,17.21-1.21,25.54,1.82,1.83.67,3.12,1.96,3.18,4.06.06,2.38-1.51,3.56-3.46,4.34-3.14,1.26-6.49,1.53-9.79,1.76-25.9,1.78-51.83,2.91-77.8,2.78-3.98-.02-7.98-.07-11.88-1.16-2.94-.82-5.03-2.41-3.91-5.67,1.03-2.99,3.45-3.17,6.11-1.87,2.31,1.13,4.83,1.16,7.32,1.25,23.47.89,46.91-.2,70.36-.98,1.5-.05,3.05.06,3.76-2.27Z"/>
  <path class="cls-2" d="M48.34,11.86c8.83-.19,13.29,4.14,13.57,12.33.31,9.08-3.95,16.31-9.81,22.77-4.58,5.05-10.01,9.31-13.96,14.94-1.7,2.42-3.76,4.91-1.31,8.07.91,1.18.2,1.75-.88,2.14-2.21.79-4.34.79-5.83-1.26-1.35-1.86-1.29-4.01-.75-6.23,1.81-7.44,7.5-11.99,12.63-16.91,4.83-4.63,9.59-9.29,12.24-15.56,1.92-4.54,3.53-9.75.31-13.83-3.37-4.27-8.67-1.98-13.14-1.12-1.86.36-3.99.62-5.48,2.18-.83.86-1.73,1.88-2.78.39-.9-1.27.09-2.26.97-2.98,4.46-3.65,9.8-4.7,14.22-4.95Z"/>
  <path class="cls-2" d="M121.32,96.26c-2.16-.45-2.73,1.57-3.53,3.14-3.2,6.28-7.39,11.79-12.72,16.4-1.5,1.3-3.08,2.59-4.82,3.5-2.5,1.32-5.87,2.9-7.62,0-1.57-2.59,1.81-4.13,3.68-5.61,9.2-7.32,15.98-16.31,19.26-27.72.47-1.64.75-3.52,3.02-3.12,2.02.35,2.58,2.18,2.32,3.87-.56,3.74.79,5.14,4.53,4.55.92-.15,1.96.28,2.92.55,5.72,1.6,8.66,4.76,8.01,8.57-.55,3.22-6.78,7.57-10.79,7.56-1.2,0-2.42-.05-3.03-1.27-.64-1.29.21-2.19,1.09-2.99.37-.33.82-.58,1.16-.94,1.29-1.33,4.76-1.58,3.88-3.62-1.05-2.43-4.34-2.62-7.37-2.87Z"/>
  <path class="cls-4" d="M87.08,17.68c.12,6.54-3.09,11.8-6.72,16.79-3.73,5.13-6.38,10.85-9.44,16.34-.85,1.53-1.56,3.89-3.88,2.96-2.19-.88-2.17-3.26-1.65-5.21,1.48-5.52,4.35-10.38,7.56-15.05,2.06-3,4.13-6.01,6.06-9.1,2.44-3.89,2.81-8.24,1.49-12.48-1.28-4.1-4.9-4.99-8.81-5.15-1.68-.07-4.46.56-4.46-1.78,0-2.34,2.79-2.34,4.73-2.49,8.76-.67,15.12,5.72,15.13,15.16Z"/>
  <path class="cls-1" d="M42.92,122.3c-6.37,1.75-11.59.01-16.1-3.2-8.16-5.82-14.14-13.5-17.39-23.1-.42-1.25-.7-2.58-.83-3.89-.21-2.18-.36-4.87,2.25-5.4,2.98-.61,3.04,2.32,3.68,4.32,3.88,12.26,12.22,20.67,23.1,26.95,1.81,1.04,3.94,1.78,5.3,4.33Z"/>
</svg>