<?xml version="1.0" encoding="UTF-8"?>
<svg id="_Слой_1" data-name="Слой 1" xmlns="http://www.w3.org/2000/svg" viewBox="0 0 173 129">
  <defs>
    <style>
      .cls-1 {
        stroke-width: 0px;
      }
    </style>
  </defs>
  <path class="cls-1" d="M41.66,127.07c4.89-7.33,9.77-14.66,14.93-22.38-14.97-8.2-29.05-15.92-44.71-24.49-2.39,3.34-5.18,7.23-7.97,11.13-.55-.4-1.1-.81-1.66-1.21.42-1.68.55-3.5,1.33-4.99,1.35-2.61,3.08-4.87,1.61-8.2-.39-.88,1.1-3.61,2.14-3.87,1.74-.45,3.81.41,6.04.77,6.37-3.34,13.32-6.89,20.15-10.66,1-.55,1.86-2.08,2.05-3.28.7-4.25,3.64-5.51,7.49-3.42,1.64.89,3.96,1.38,5.73.98,5.33-1.18,12.04-1.42,15.38-4.81,3.13-3.19,2.63-9.93,3.76-15.1.39-1.78.9-3.53,1.47-5.74-4.15-.69-6.27-3.7-4.42-7.13,1.04-1.93,4.88-2.34,7.46-3.44.46.57.93,1.13,1.39,1.7,2.75-5.33,5.19-10.86,8.41-15.88,1.34-2.08,4.21-3.63,6.69-4.32,1.13-.32,2.89,2.27,4.58,3.1,2.19,1.09,4.6,1.76,7.14,2.69-.28.5-.7,1.27-1.11,1.99,15.82,6.55,31.6,13.09,47.39,19.63.61.25,1.21.55,1.81.84,10.3,5.04,10.35,5.07,16.9-4.6,2.03-2.99,3.72-6.2,6.82-9.1-.96,4.28-1.95,8.54-2.84,12.83-.25,1.19-.77,3.07-.23,3.54,3.93,3.41,1.76,6.9-.65,9.01-2.04,1.78-6.08,3.07-8.41,2.24-2.92-1.04-4.42-.3-6.65.93-4.2,2.33-8.72,4.09-12.9,6.46-1.53.87-2.3,2.97-3.69,4.21-1.78,1.58-3.71,3.68-5.8,3.97-1.5.21-3.37-2.17-4.51-4.36-17.44.58-34.88,1.09-52.31,1.89-1.28.06-3.31,2.03-3.55,3.37-1.18,6.55-1.87,13.18-2.77,20.13,1.08.48,2.56.7,3.29,1.55.89,1.04,1.74,2.72,1.52,3.94-.2,1.11-1.82,2.77-2.84,2.79-3.21.06-3.78,1.96-4.22,4.44-.37,2.12-1.33,4.18-1.45,6.3-.09,1.59.74,3.23,1.12,4.86.43,1.85,1.26,3.77,1.03,5.54-.11.87-2.28,2.17-3.43,2.09-3.41-.24-4.57,1.96-6.02,4.28-3.42,5.5-7.98,9.54-14.37,10.99-.39-.4-.78-.8-1.17-1.19ZM154.57,37.61c-3.27-1.41-5.65-2.51-8.09-3.47-16.24-6.42-32.54-12.67-48.7-19.29-7.31-2.99-9.82-2.91-14.72,2.96-1.97,2.36-3.38,5.18-4.89,7.54.54.85.65,1.26.9,1.38,14,6.48,28.03,12.91,42.02,19.43,1.69.79,3.19,1.98,5.8,3.64,8.94-1.52,18.5-4.9,27.68-12.18ZM57.14,100.73c1.3-5.79,2.5-10.76,3.46-15.77.17-.91-.39-2.32-1.1-2.97-5.51-5.03-11.11-9.96-16.78-14.81-.74-.63-2.29-1.17-3.03-.82-7.23,3.37-14.37,6.93-22.68,11,13.98,8.14,26.55,15.46,40.14,23.37ZM71.53,51.02h48.03c-.09-.23-.17-.45-.26-.68-14.35-5.97-28.69-11.93-43.72-18.18-1.34,6.22-2.75,12.76-4.06,18.86ZM48.75,63.07c4.28,4.87,8.56,9.72,13.03,14.8.73-6.15,1.45-12.12,2.27-18.97-6.28,1.71-11.63,3.17-15.29,4.17Z"/>
</svg>