<?xml version="1.0" encoding="UTF-8"?>
<svg id="_Слой_1" data-name="Слой 1" xmlns="http://www.w3.org/2000/svg" viewBox="0 0 172 109">
  <defs>
    <style>
      .cls-1 {
        fill: #030303;
      }

      .cls-1, .cls-2, .cls-3 {
        stroke-width: 0px;
      }

      .cls-2 {
        fill: #010101;
      }
    </style>
  </defs>
  <path class="cls-3" d="M96.99,100.01c-17.12-2.8-34.02-5.57-50.93-8.34-11.16-1.83-22.31-3.7-33.47-5.51-8.29-1.34-12.39-8.82-9.13-16.84.88-2.18,2.27-4.05,3.96-5.7C26.61,44.92,45.86,26.27,64.92,7.43c2.52-2.49,4.97-2.85,8.05-2.33,22.8,3.81,45.6,7.6,68.4,11.39,5.41.9,10.84,1.76,16.25,2.63,1.66.27,3.45.45,4.07,2.35.57,1.74-.82,2.77-1.85,3.8-17.46,17.62-34.99,35.17-52.36,52.88-1.99,2.03-3.94,2.08-6.28,1.7-27.73-4.55-55.47-9.01-83.17-13.73-4.71-.8-6.82.11-7.72,5.16-1.53,8.55-1.89,8.56,6.98,10.02,26.08,4.31,52.18,8.55,78.26,12.82.66.11,1.31.24,1.96.37,1.86.37,3.83.81,3.51,3.3-.33,2.56-2.4,2.3-4.04,2.22ZM154.06,24.64c-2.14-.66-2.7-.91-3.29-1-26.1-4.3-52.21-8.54-78.3-12.94-2.53-.43-3.66.91-5.07,2.29-7.62,7.45-15.39,14.76-22.82,22.39-8.33,8.55-16.35,17.39-24.13,25.7-.08-.02,1.01.28,2.13.45,21.84,3.51,43.89,6.06,65.44,10.87,12.01,2.68,19.15-.89,26.9-9.34,12.12-13.21,25.55-25.22,39.14-38.42Z"/>
  <path class="cls-2" d="M168.26,42.71c-.09,1.14-1.29,1.87-2.23,2.78-17.05,16.56-34.09,33.11-51.13,49.68-1.57,1.52-3.3,3.6-5.44,1.57-2.58-2.44.1-4.18,1.65-5.7,16.91-16.46,33.87-32.87,50.84-49.27,1.25-1.21,2.32-2.99,4.6-2.12,1.28.49,1.75,1.43,1.71,3.06Z"/>
  <path class="cls-1" d="M72.65,27.04c11.27,1.82,22.55,3.64,33.83,5.46,2.29.37,4.58.7,6.87,1.09,1.58.27,2.98.82,2.72,2.82-.25,1.93-1.6,2.33-3.27,2.07-13.74-2.18-27.48-4.35-41.22-6.56-1.65-.27-2.85-1.23-2.47-3.06.39-1.87,1.96-1.99,3.55-1.81Z"/>
</svg>