<?xml version="1.0" encoding="UTF-8"?>
<svg id="_Слой_1" data-name="Слой 1" xmlns="http://www.w3.org/2000/svg" viewBox="0 0 161 84.05">
  <defs>
    <style>
      .cls-1 {
        stroke-width: 0px;
      }
    </style>
  </defs>
  <path class="cls-1" d="M37.45,41.5c-10.49-8.62-20.51-16.84-30.5-25.1-1.01-.84-1.96-1.82-2.71-2.9C.83,8.57,2.64,4.64,8.64,4.3c5.48-.31,10.99-.23,16.49-.27,13.65-.09,27.3-.2,40.96-.13,1.16,0,3.22,1.22,3.3,2.02.36,3.66.16,7.38.16,11.08-.62.18-1.24.36-1.86.54-.91-1.81-1.66-3.73-2.79-5.4-.84-1.25-2.16-3.08-3.29-3.1-18.16-.31-36.32-.38-54.48-.47-.43,0-.87.31-2.39.88,8.89,6.88,17.22,13.32,25.56,19.77,3.68,2.85,7.21,5.95,11.09,8.49,2.92,1.91,2.91,3.11.67,5.71-9.42,10.99-18.57,22.2-27.81,33.35-.19.23-.17.62-.35,1.31.91.17,1.8.51,2.68.48,15.15-.42,30.29-1,45.44-1.24,4.33-.07,7.06-.8,6.76-5.94-.07-1.21,1.41-2.5,2.18-3.76.77,1.28,2.11,2.51,2.22,3.84.81,9.75-.65,11.48-10.47,11.72-16.32.4-32.64.56-48.97.82-.83.01-1.76.2-2.48-.1-1.76-.74-4.05-1.34-4.91-2.74-.58-.95.49-3.5,1.53-4.76,8.45-10.27,17.06-20.41,25.65-30.58,1.27-1.51,2.66-2.92,3.94-4.31Z"/>
  <path class="cls-1" d="M116.03,59.8c5.46,7.1,12.76,11.61,14.54,19.72l-1.44,1.2c-5.75-5.53-11.5-11.05-17.16-16.49-5.87,4.49-11.21,8.58-16.55,12.66l-1.37-1.21c1.69-2.64,3.17-5.46,5.13-7.88,2.07-2.55,4.6-4.73,7.2-7.35-4.98-6.12-12.97-9.84-15.05-18.05.34-.42.69-.84,1.03-1.27,2.08,1.35,4.3,2.52,6.2,4.09,3.6,2.95,6.86,6.33,10.58,9.1,1.09.81,3.79.88,4.83.09,5.9-4.5,11.53-9.37,18.61-13.81-.33,1.56-.15,3.55-1.07,4.59-3.38,3.86-7.06,7.46-10.75,11.03-1.4,1.36-3.13,2.38-4.75,3.58Z"/>
  <path class="cls-1" d="M140.05,44.68c1.41-.86,2.73-1.91,4.23-2.55,4.22-1.81,7.46-4.5,8.17-9.26.74-4.93-1.86-7.24-6.69-6.16-1.87.42-3.7.97-6.13,1.62,3-4.45,8.94-6.16,12.44-4.13,4.31,2.5,4.59,9.8.63,16.69,2.54.94,5.1,1.89,7.67,2.83-.12.71-.24,1.42-.36,2.13h-19.5c-.15-.39-.31-.78-.46-1.17Z"/>
</svg>