<?xml version="1.0" encoding="UTF-8"?>
<svg id="_Слой_1" data-name="Слой 1" xmlns="http://www.w3.org/2000/svg" viewBox="0 0 139 134.06">
  <defs>
    <style>
      .cls-1 {
        stroke-width: 0px;
      }
    </style>
  </defs>
  <path class="cls-1" d="M85.37,44.67c13.32-11.2,26.64-22.39,39.97-33.59l-.62-1.21c-3.4,1.2-6.75,2.59-10.23,3.5-1.3.34-2.89-.43-4.34-.69.85-1.07,1.48-2.68,2.58-3.13,6.46-2.65,12.94-5.33,19.6-7.4,4.81-1.49,6.84.72,5.46,5.45-1.99,6.8-4.27,13.51-6.43,20.26-.61-.04-1.22-.07-1.84-.11-.67-3.27-1.33-6.53-2.13-10.45-2.8,2.34-5.5,4.64-8.24,6.89-9,7.4-18,14.8-27.04,22.15-1.28,1.04-2.7,2-4.18,2.71-5.07,2.42-9.13.65-10.09-4.88-.9-5.2-1-10.54-1.56-17.22-23.11,13.88-45.72,27.45-68.32,41.02-.41-.46-.82-.91-1.22-1.37,1.58-1.58,2.94-3.52,4.78-4.69,20.53-13.02,41.09-26,61.77-38.79,6.62-4.1,9.17-2.42,9.41,5.49.15,5.09.4,10.17.6,15.26.7.27,1.39.54,2.09.81Z"/>
  <path class="cls-1" d="M135.4,124.87c-4.24-26.89-3.94-54.05-3.69-82.04-5.13.29-10.18.58-15.88.9,0,2.15.01,3.89,0,5.64-.11,15.81-.21,31.62-.34,47.42,0,1.16.05,2.46-.44,3.43-.53,1.05-1.55,2.13-2.6,2.51-.45.17-1.95-1.26-2.23-2.19-.51-1.72-.7-3.61-.63-5.41.62-16.64,1.37-33.27,1.97-49.9.12-3.28.96-5.34,4.74-5.49,5.79-.22,11.57-1.04,17.36-1.09,3.46-.03,5.26,1.62,4.36,5.88-.92,4.34-.86,8.94-.76,13.41.38,18.31,1.01,36.61,1.36,54.93.08,4.01-.62,8.03-.96,12.04-.75-.02-1.51-.03-2.26-.05Z"/>
  <path class="cls-1" d="M31.88,133.89c-.49-2.54-1.4-5.07-1.41-7.61-.09-18.47.07-36.94,0-55.41-.02-4.42,1.28-6.61,6.2-6.81,6.63-.27,13.22-1.4,19.82-2.22,3.19-.4,4.69.87,4.65,4.12-.17,14.81-.18,29.61-.55,44.41-.08,3.27-1.44,6.51-2.2,9.76-.74-.02-1.48-.04-2.22-.07-.36-2.74-1.04-5.48-1.03-8.22.07-13.81.21-27.62.58-41.42.1-3.85-1.12-5.1-4.88-4.42-3.76.68-7.57,1.21-11.39,1.43-3.45.19-4.37,1.69-4.3,5.03.37,17.47.58,34.94.65,52.41.01,3.06-.96,6.12-1.47,9.19-.82-.06-1.63-.12-2.45-.18Z"/>
  <path class="cls-1" d="M69.95,86.13c1.35-.21,3.33-.68,5.33-.79,5.14-.29,10.3-.25,15.43-.66,2.97-.24,4.72.87,4.76,3.66.18,11.82.25,23.65.05,35.47-.02,1.24-2.1,2.44-3.23,3.66-.88-1.26-2.48-2.49-2.52-3.78-.28-8.99-.28-17.99-.27-26.98,0-7.02.07-7.02-6.93-7.03-1.8,0-3.59,0-4.99,0,0,10.57.04,20.66-.03,30.76-.01,1.97-.25,3.99-.75,5.9-.19.71-1.43,1.6-2.16,1.57-.69-.02-1.74-1.03-1.94-1.79-.43-1.58-.53-3.28-.54-4.93-.06-8.5.11-17-.14-25.49-.08-2.76-1.16-5.49-2.08-9.56Z"/>
  <path class="cls-1" d="M19.16,126.84c-.66-2.67-1.76-5.31-1.88-8.01-.38-8.3-.39-16.62-.52-24.93-.03-1.78,0-3.57,0-5.96-3.22.3-5.77.54-8.68.81.38,8.5.77,16.59,1.09,24.68.11,2.66.35,5.36-.04,7.96-.25,1.66-1.56,3.16-2.39,4.74-.88-1.53-2.48-3.04-2.54-4.6-.34-9.47-.3-18.95-.45-28.42-.03-2.08-.34-4.16-.62-7.43,5.23-.62,10.86-1.39,16.51-1.82.7-.05,2.21,1.75,2.21,2.69-.05,12.61-.29,25.23-.54,37.84-.01.74-.47,1.47-.73,2.2-.47.08-.93.17-1.4.25Z"/>
</svg>