<?xml version="1.0" encoding="UTF-8"?>
<svg id="_Слой_1" data-name="Слой 1" xmlns="http://www.w3.org/2000/svg" viewBox="0 0 167 104">
  <defs>
    <style>
      .cls-1 {
        stroke-width: 0px;
      }
    </style>
  </defs>
  <path class="cls-1" d="M105,1c-1.12,1.51-2.24,3.01-3.82,5.14,19.5-2.96,38.52-4.09,57.05,2.95-23.34-3.4-46.49-3.91-70.52,3.93,1.84-2.01,2.98-3.38,4.25-4.61,1.29-1.25,2.7-2.36,4.22-3.67-15.86-1.23-45.1,29.43-50.83,53.66,12.48-16.33,26.34-30.61,48.27-32.93-14.9,4.99-27.18,13.81-37.08,25.83-6.02,7.31-11.61,14.98-17.91,23.15,25.25-8.78,49.09-16.97,72.84-25.42,4.94-1.76,9.54-4.45,15.65-7.36-2.81-.66-4.09-.96-5.37-1.26,0-.31-.02-.62-.03-.94,2.94-.22,5.88-.44,10.46-.78-1.75,2.19-2.34,3.58-3.39,4.16-6.69,3.66-13.18,7.96-20.29,10.52-17.69,6.36-35.72,11.77-53.52,17.85-6.26,2.14-12.31,4.96-18.29,7.82-1.85.88-3.07,3-4.72,4.37-7.03,5.8-14.05,11.63-21.24,17.23-1.44,1.12-3.62,1.29-6.02.89,3.51-2.53,7.15-4.9,10.5-7.62,13.53-11,23.86-24.16,29.51-41.03,7.18-21.43,21.07-37.53,41.22-48,2.91-1.51,6.03-2.59,9.06-3.87,3.33,0,6.67,0,10,0Z"/>
  <path class="cls-1" d="M139.26,28.95c8.21-3.68,16.41-7.37,24.62-11.05.24.53.48,1.06.71,1.58l-24.45,10.89c-.29-.48-.59-.95-.88-1.43Z"/>
</svg>