<?xml version="1.0" encoding="UTF-8"?>
<svg id="_Слой_1" data-name="Слой 1" xmlns="http://www.w3.org/2000/svg" viewBox="0 0 189 176">
  <defs>
    <style>
      .cls-1 {
        fill: #d0e0c1;
      }

      .cls-1, .cls-2, .cls-3, .cls-4, .cls-5, .cls-6, .cls-7, .cls-8 {
        stroke-width: 0px;
      }

      .cls-2 {
        fill: #6e9e3f;
      }

      .cls-3 {
        fill: #f1eff3;
      }

      .cls-4 {
        fill: #6a399b;
      }

      .cls-5 {
        fill: #f5f4f6;
      }

      .cls-6 {
        fill: #7da852;
      }

      .cls-7 {
        fill: #6b9b3a;
      }

      .cls-8 {
        fill: #689a37;
      }
    </style>
  </defs>
  <path class="cls-1" d="M115.81,70.83c1.41,1.92,3.07,1.01,4.33.07,3.9-2.93,7.44-1.72,10.84.75,2.96,2.15,3.19,5.08,2.11,8.36-.29.9-.06,1.96-.08,2.95-2.65.18-3.76,1.73-3.86,4.26-.26,6.06-2.59,11.62-4.3,17.33-.34,1.13-.71,2.15-2.13,2.43-4.53.91-6.45,4.39-7.68,8.31-1.49,4.75-2.64,9.6-4.14,14.34-.34,1.09.04,3.54-2.42,2.7-4.42-1.51-5.46,1.54-6.68,4.6-1.43,3.58-2.3,7.46-5.33,10.92-.87-3.69.72-7.32-2.58-9.73-4.34-3.18-6.85-7.58-7.92-12.84-.41-2.01-1.73-3.91-3.71-2.59-3.24,2.16-3.59-.17-4.39-2.13-1.27-3.11-1.85-6.36-1.84-9.73.01-3.82.26-7.67-.06-11.47-.64-7.7-6.18-10.22-12.23-5.48-2.29,1.8-2.78.52-3.41-1.16-1.01-2.67-1.33-5.45-1.4-8.31-.07-2.78.54-5.68-.94-8.31.61-2.48,2.66-3.99,4-5.98,4.78,1.28,9.37.18,13.93-1.17,3.63,1.29,7.31,2.04,11.15,1.04,2.7,2.57,5.74,2.19,8.88,1.04,4.73.6,9.41.21,14.03-.9,1.84,1.05,3.81,1.06,5.82.69Z"/>
  <path class="cls-8" d="M57.99,76.11c1.48,2.63.87,5.53.94,8.31.07,2.86.39,5.64,1.4,8.31.63,1.68,1.12,2.95,3.41,1.16,6.05-4.73,11.59-2.22,12.23,5.48.31,3.8.07,7.64.06,11.47-.01,3.36.57,6.62,1.84,9.73.8,1.96,1.15,4.28,4.39,2.13,1.98-1.32,3.3.58,3.71,2.59,1.07,5.26,3.59,9.67,7.92,12.84,3.3,2.42,1.72,6.05,2.58,9.73,3.03-3.46,3.9-7.35,5.33-10.92,1.22-3.05,2.25-6.11,6.68-4.6,2.45.84,2.07-1.61,2.42-2.7,1.49-4.74,2.65-9.59,4.14-14.34,1.23-3.92,3.15-7.4,7.68-8.31,1.43-.29,1.8-1.3,2.13-2.43,1.7-5.71,4.04-11.27,4.3-17.33.11-2.53,1.21-4.08,3.86-4.26,2.22,1.44,2.08,3.58,1.73,5.79-1.11,6.93-3.22,13.59-5.67,20.15-.85,2.29-2.02,4.18-5.01,3.9-3.05-.28-3.37,2.45-3.94,4.31-1.99,6.52-3.48,13.2-5.58,19.68-1.13,3.5-1.55,8.51-7.74,6.45-1.49-.5-1.51,1.37-2.06,2.3-1.78,3-3.49,6.06-5.43,8.95-1.37,2.04-3.32,3.46-5.95,2.47-2.28-.85-3.66-2.91-3.13-5.13,1.54-6.48-.84-11.29-5.15-15.91-2.52-2.7-2.72-7.26-7.81-7.95-2.35-.32-3.23-3.56-4.15-5.9-2.25-5.73-2.21-11.72-2-17.73.06-1.66.05-3.34-.13-4.98-.12-1.15-.54-2.4-1.85-2.71-1.43-.34-1.96.96-2.65,1.84-3.99,5.1-6.4,4.84-9.58-.98-3.18-5.84-3.19-12.14-2.78-18.5.15-2.32,1.72-3.04,3.84-2.9Z"/>
  <path class="cls-4" d="M75.93,68.97c-4.56,1.34-9.15,2.45-13.93,1.17-4.71-5.05-9.97-4.59-15.85-2.11-4.75,2-9.4,2.62-13.36-2.57-2.31-3.02-6.11-1.83-9.2-.2-2.69,1.42-5.35,2.7-8.52,2.22-1.61-.24-2.95-.64-2.75-2.72.24-2.37,1.67-1.38,2.89-1.09,2.25.53,4.22-.2,6.2-1.23,5.49-2.83,10.78-3.49,15.27,1.91,1.55,1.86,3.55,1.59,5.51,1.03,2.88-.82,5.73-1.74,8.55-2.72,3.42-1.18,6.85-.93,9.39,1.48,3.74,3.55,7.73,3.26,12.03,1.94,2.38-.73,4.74-1.54,7.1-2.35,3.96-1.36,7.59-1.36,10.07,2.67,1.53,2.49,3.38,2.29,5.47.94,2.23-1.44,4.27-3.34,6.69-4.28,3.6-1.4,7.5-2.42,9.78,2.43,1.09,2.32,2.72,1.83,4.54.76,3.72-2.2,7.45-4.32,11.71-5.45,3.67-.97,6.82-.96,9.57,2.07,2.76,3.05,5.73,2.87,8.73.23,1.12-.99,2.31-1.9,3.46-2.85,6.29-5.17,6.93-5.19,13.59-.71,3.39,2.28,7.15,2.45,11.04,1.78,1.76-.3,4.01-1.19,4.17,1.7.13,2.3-1.92,2.9-3.82,3.08-5.26.5-10.48.18-14.6-3.5-2.46-2.2-4.23-1.94-6.39.11-1.2,1.14-2.61,2.06-3.93,3.07-6.51,4.97-9.21,5.17-15.31-.14-3.05-2.66-5.73-1.14-8.32-.19-3.08,1.13-5.86,3.08-8.77,4.68-.37.23-.73.46-1.1.69,0,0-.04.01-.04.01-2.01.37-3.98.36-5.82-.69-3.96-5.68-4.99-5.87-10.53-1.87-1.21.87-2.34,1.84-3.5,2.77-3.14,1.16-6.18,1.53-8.88-1.04-3.14-6.58-7.31-2.04-11.15-1.04Z"/>
  <path class="cls-7" d="M49.47,59.12c6.32-6.68,12.53-12.95,20.98-16.44,2.63-1.08,4.97-.22,6.64,1.98,2.45,3.23,5.33,2.96,8.33,1.13,4.1-2.51,8.14-5.14,12.14-7.8,2.37-1.58,4.91-1.89,7.62-1.53,1.29.17,2.22.95,2.34,2.23.14,1.41-.93,2.31-2.15,2.18-5.84-.62-9.28,3.85-13.66,6.28-2.75,1.52-5.25,3.5-8.42,4.18-2.77.6-5.58.51-7.33-1.79-2.81-3.69-5.65-2.78-8.54-.58-3.96,3.01-7.83,6.15-11.59,9.41-1.82,1.58-3.52,2.21-6.34.76Z"/>
  <path class="cls-2" d="M125.27,49.92c-1.29.95-2.7,2.1-4.22,3.09-1.26.83-2.79,1.69-3.91-.02-.98-1.5.33-2.38,1.43-3.18,1.48-1.07,2.96-2.13,4.4-3.25,3.44-2.65,6.01-2.38,7.53,2.06.48,1.4,1.18,2.72,2.58,3.54,1.16.68,3.44,1.11,1.95,3.06-1.24,1.63-3.41,1.46-4.91.15-1.21-1.05-2.02-2.58-2.91-3.96-.44-.69-.63-1.55-1.94-1.49Z"/>
  <path class="cls-6" d="M121.65,43.66c-.27,1.73-1.25,2.18-2.51,2.16-1.55-.03-6-4.79-5.73-6.16.22-1.11,1.04-1.73,2.14-1.55,3.35.53,4.37,3.55,6.1,5.55Z"/>
  <path class="cls-1" d="M115.84,70.82c.37-.23.74-.46,1.1-.69-.37.23-.74.46-1.1.69Z"/>
  <path class="cls-5" d="M95.96,71.04c1.17-.93,2.3-1.9,3.5-2.77,5.54-4,6.57-3.81,10.53,1.87-4.63,1.11-9.3,1.49-14.03.9Z"/>
  <path class="cls-3" d="M75.93,68.97c3.84-1.01,8.01-5.55,11.15,1.04-3.84,1-7.52.25-11.15-1.04Z"/>
</svg>