<?xml version="1.0" encoding="UTF-8"?>
<svg id="_Слой_1" data-name="Слой 1" xmlns="http://www.w3.org/2000/svg" viewBox="0 0 347 108">
  <defs>
    <style>
      .cls-1 {
        fill: #70a042;
      }

      .cls-1, .cls-2, .cls-3, .cls-4, .cls-5, .cls-6, .cls-7, .cls-8, .cls-9, .cls-10, .cls-11, .cls-12, .cls-13, .cls-14, .cls-15, .cls-16, .cls-17, .cls-18, .cls-19, .cls-20 {
        stroke-width: 0px;
      }

      .cls-2 {
        fill: #6a9b3a;
      }

      .cls-3 {
        fill: #663398;
      }

      .cls-4 {
        fill: #6d9d3d;
      }

      .cls-5 {
        fill: #689a38;
      }

      .cls-6 {
        fill: #bfaad4;
      }

      .cls-7 {
        fill: #669834;
      }

      .cls-8 {
        fill: #679a36;
      }

      .cls-9 {
        fill: #679936;
      }

      .cls-10 {
        fill: #6b9c3b;
      }

      .cls-11 {
        fill: #639;
      }

      .cls-12 {
        fill: #f2f6ee;
      }

      .cls-13 {
        fill: #e8efe1;
      }

      .cls-14 {
        fill: #689a36;
      }

      .cls-15 {
        fill: #699b39;
      }

      .cls-16 {
        fill: #6c9d3d;
      }

      .cls-17 {
        fill: #679935;
      }

      .cls-18 {
        fill: #689a37;
      }

      .cls-19 {
        fill: #67359a;
      }

      .cls-20 {
        fill: #669934;
      }
    </style>
  </defs>
  <path class="cls-3" d="M65,1c-.51,7.96-.38,15.9-.06,23.52,2.24,2.32,4.02,1.67,6.1.42,5.46-3.28,10.34-2.68,13.89,1.46,3.07,3.58,3.16,9.26.21,12.88-3.56,4.37-8.34,4.96-14.24,1.57-1.75-1.01-3.31-1.45-5.78.09v23.03c-10,2.79-23.92,1.2-25.78-2.67,4.32-8.74,4.24-13.29-.31-16.93-3.76-3.01-8.61-3.09-12.48-.22-4.68,3.48-4.82,7.42-.53,17.4-.4,2.94-2.48,3.44-5.04,3.43-6.66-.03-13.32,0-19.98.02V1h23c1.03,1.26,2.47,2.34,1.88,4.42-4.18,6.76-4.25,11.69-.18,15.61,3.71,3.57,9.25,4.08,13.12.65,3.75-3.33,6.85-6.53.7-16.9-.44-1.84,1.19-2.49,1.49-3.77h24Z"/>
  <path class="cls-3" d="M168.07,1.89c11.78,2.36,16.26,7.87,15.04,18.21-.66,5.59-4.49,8.57-9.32,11.34,7.96,2.62,11.28,7.95,10.92,15.65-.36,7.74-4.76,13.21-12.77,16.05-4.78,1.7-9.74,1.9-14.75,1.85-6.96-.07-13.92-.02-20.62-.02-.43-.64-.75-.89-.76-1.15-.2-20.94-.59-41.88.18-62.82h28c1.1,1.48,2.63.98,4.07.89ZM153.07,51.57c4.88-.11,9.62,1.41,12.81-3.09,1.7-2.4,1.62-5.2-.22-7.46-3.38-4.15-8-2.79-12.59-2.66v13.22ZM153.06,25.62c4.65.03,8.99,1.01,11.83-3.13,1.32-1.92,1.5-4.28-.27-5.97-3.35-3.18-7.44-2.72-11.56-1.98v11.08Z"/>
  <path class="cls-11" d="M315,1c-1.3,5.12-5.01,8.87-7.62,13.24-3.49,5.84-7.34,11.46-11.13,17.32,6.83,10.95,13.58,21.77,20.65,33.1h-19.34c-5.76-9.78-11.73-19.91-18.52-31.43v31.48h-18.03V1h18v30.52c6.51-11.04,12.26-20.78,18-30.52,6,0,12,0,18,0Z"/>
  <path class="cls-3" d="M112,1c6.43,19.86,12.87,39.71,19.3,59.57.4,1.25.74,2.52,1.21,4.13h-18.43c-1.08-3.68-2.23-7.58-3.41-11.56h-20.43c-1.15,3.86-2.31,7.76-3.49,11.71h-18.72c1.88-5.86,3.68-11.45,5.59-17.41,8.7.69,15.7-2.07,18-11.12,1.98-7.79-1.91-13.41-8.82-17.38,2.1-6.09,4.15-12.02,6.2-17.94,7.67,0,15.33,0,23,0ZM107.12,38.75c-2.2-8.63-4.31-16.96-6.71-26.35-2.34,9.37-4.43,17.75-6.58,26.35h13.28Z"/>
  <path class="cls-19" d="M205,1v21.87c4.04,1.46,7.56.76,10.98,1.04,10.28.85,17.77,7.06,18.98,15.98,1.5,11.1-3.84,19.97-14.28,23.31-10.42,3.34-21.16,1.12-32.67,1.9V1h17ZM205.56,51.03c4.61.02,8.98,1.16,11.54-3.44,1.4-2.52,1.33-5.26-.53-7.44-2.91-3.4-6.79-3.31-11-2.6v13.48Z"/>
  <path class="cls-3" d="M257,1v63.66h-16.64c-1.01-.73-.75-1.82-.75-2.75-.02-19.32-.02-38.64,0-57.96,0-.98.25-1.97.39-2.95,5.67,0,11.33,0,17,0Z"/>
  <path class="cls-6" d="M168.07,1.89c-1.44.09-2.97.59-4.07-.89h4c-.04.3-.01.6.07.89Z"/>
  <path class="cls-14" d="M313.39,28.76c.16-3,.32-5.93.47-8.83,2.42-.87,4.52-.47,6.6-.44,1.4,3.11.06,6.21,1.03,9.21,2.85,1.5,6.2-.22,9.35,1.19v7.07h-9.01c-1.48,3.31-.01,6.58-1.09,9.66-2.11.72-4.22.4-6.58.18-1.25-2.95.08-6.22-1-9.62h-8.85c-.98-2.61-.59-4.85-.39-7.16,2.88-1.58,6.02-.05,9.47-1.26Z"/>
  <path class="cls-10" d="M107.09,81.16c-2.64,3.51-5.28,7.01-7.86,10.45-1.5.9-2.9.85-4.6.08v-18.06c1.2-1.21,2.52-.76,4.15-.55v12.33c3.66-4.82,6.46-8.5,9.22-12.14,1.53-.62,2.95-.68,4.53.15v18.05c-1.39,1.09-2.67.82-4.3.41v-10.24l-1.15-.48Z"/>
  <path class="cls-2" d="M316.47,72.83v18.42c-1.23,1.49-2.6.78-4.25.94v-10.98c-.32-.15-.63-.3-.95-.45-2.69,3.59-5.39,7.19-8.05,10.74-1.41,1.03-2.84.85-4.65.31v-18.25c1.2-1.31,2.59-.56,4.25-.52v10.95c5.57-2.55,5.47-11.46,13.65-11.17Z"/>
  <path class="cls-18" d="M288.91,91.91v-12.07c-3.46,4.58-6.21,8.22-8.9,11.78-1.51.87-2.93.76-4.59.08v-18.08c1.27-1.2,2.57-.68,4.29-.52v11.15c5.38-3.09,5.76-11.06,13.31-11.62v18.92c-.77,1.12-2.11.66-4.11.36Z"/>
  <path class="cls-5" d="M251.25,82.48c.04,5.81-4.42,10.2-10.47,10.3-6.01.1-10.68-4.21-10.81-9.95-.13-6.08,4.41-10.55,10.69-10.51,6.05.03,10.54,4.35,10.58,10.17ZM246.8,82.27c-.12-3.47-3.16-6.43-6.52-6.05-3.9.44-5.83,2.8-5.61,6.76.2,3.82,2.47,5.67,6.08,5.79,3.4.12,6.18-3.02,6.06-6.51Z"/>
  <path class="cls-18" d="M12.24,72.31c5.96-.03,10.69,4.4,10.76,10.07.07,5.67-4.58,10.28-10.48,10.39-6.29.12-11-4.35-10.93-10.36.07-5.86,4.51-10.08,10.64-10.11ZM12.29,88.83c3.51-.02,6.08-2.82,5.95-6.51-.13-3.76-2.2-5.83-5.84-6.11-3.4-.26-6.33,2.75-6.35,6.24-.02,3.53,2.79,6.39,6.24,6.37Z"/>
  <path class="cls-15" d="M39.76,79.96c.13-2.19.26-4.3.39-6.44,1.4-1.06,2.73-.88,4.29.01v17.8c-1.27,1.33-2.64,1.05-4.29.41-.1-2.27-.21-4.56-.32-7.04-2.79-.95-5.52-.46-8.54-.35-.15,2.55-.29,4.82-.43,7.09-1.14,1.17-2.36.89-3.92.28v-18.15c1.16-1.26,2.41-.6,4.03-.57v6.95h8.79Z"/>
  <path class="cls-15" d="M122,73.03v6.96h8.82c.1-2.27.2-4.38.3-6.66,1.47-.77,2.8-.56,4.31.05v17.9c-1.17,1.4-2.52.91-3.92.76-1.14-2.29-.02-4.9-.83-7.35-2.57-1.09-5.22-.19-7.78-.53-1.76,2.38-.26,5.06-1.19,7.42-1.08,1.22-2.32.48-3.82.42v-18.41c1.3-1.22,2.51-.63,4.11-.56Z"/>
  <path class="cls-4" d="M150.33,93.04c-2.4-3.99.9-4.38,2.49-6.37.36-4.08.76-8.68,1.18-13.57h14.63v18.62c-1.34.75-2.59.64-4.3-.09v-14.44c-2.29-1.29-4.2-.99-5.99-.52-2.84,5.32,1.9,14.4-8.02,16.37Z"/>
  <path class="cls-20" d="M56.14,76.86q-1.86,15.5-7.81,15.44c-2.18-3.11,1.44-3.69,2.62-5.67.24-2.01.62-4.32.77-6.63.14-2.14.03-4.29.03-6.72,5.16-.84,9.9-.38,14.95-.32v18.62c-.99,1.04-2.21.74-3.98.05v-14.49c-2.54-1.12-4.56-1.17-6.57-.26Z"/>
  <path class="cls-8" d="M78.35,73h4.74c2.67,5.93,5.44,12.07,8.14,18.08-1.22,1.67-2.53,1.08-4.03.89-.68-1.14-1.42-2.39-2.21-3.73h-8.26c-1.54.55-1.23,2.78-2.81,3.86h-3.98c2.91-6.6,5.65-12.82,8.42-19.1ZM77.69,84.33c2.19.65,3.76.85,5.43-.07,0-2.38-.85-4.38-2.7-6.37-.91,2.15-1.73,4.08-2.73,6.44Z"/>
  <path class="cls-9" d="M255.11,91.76v-18.9c3.34,0,6.59-.16,9.82.04,3.93.24,6.66,2.25,6.99,6.37.34,4.15-2.11,6.51-5.93,7.39-1.91.44-3.94.37-5.84.52-1.29,1.29-.41,2.98-1.11,4.4-1.07.98-2.31.74-3.94.17ZM266.13,82.47c1.43-1.87,1.31-3.38.27-5.08-2.08-1.34-4.32-1.67-6.99-.41.03,1.98-.44,3.89.37,5.77,2.22.67,4.26.6,6.35-.29Z"/>
  <path class="cls-17" d="M205.5,73.32c1.19-.64,2.49-.6,4.37-.15-1.92,2.98-3.73,5.8-5.77,8.98,1.88,3.05,3.85,6.23,5.82,9.42-1.63,1.08-3.07.49-3.93.53-3.55-2.18-3.26-7.63-8.24-7.69-1.29,2.35-.19,4.76-.88,7.05-.96,1.35-2.28.56-3.82.6v-18.53c1.09-1.03,2.31-.81,3.96-.13v7.04c5.89.66,5.33-5.39,8.48-7.11Z"/>
  <path class="cls-7" d="M174.29,72.68c5.02.91,10.15-1.28,15.79,2.03-4.55,2.46-8.02.82-11.25,1.85-.96,1.12-.79,2.32-.23,3.43,2.56,2.16,6.99-1.33,9.08,3.1-3.15,1.86-6.32.22-9.05,1.34-.67,1.32-.59,2.56.16,4.26h9.21c1.16,1.29,1.16,2.16.4,3.32h-14.11v-19.33Z"/>
  <path class="cls-7" d="M211.38,73.18h16.26q-.03,2.93-5.4,3.4v14.57c-1.58,1.41-2.7,1.04-4.08.77-1.14-4.8.05-9.81-.58-14.09-1.34-3.14-6.45.67-6.2-4.65Z"/>
  <path class="cls-1" d="M302.02,67.75c2.66-1.83,3.34,1.4,5.18,1.19,2.02.68,2.81-3.08,5.35-1.34.08,2.59-1.61,3.49-3.9,3.62-2.8.17-5.7.36-6.64-3.47Z"/>
  <path class="cls-1" d="M108.88,67.73c-.65,3.39-3.13,3.56-5.67,3.55-2.46,0-4.6-.54-5.02-3.49,2.37-2.23,3.29,1.43,5.2,1.17,1.96.55,2.78-3.15,5.49-1.22Z"/>
  <path class="cls-16" d="M147.05,85.82c-2.72.29-5.09.74-7.48-.33-.47-3.53,2.15-2.65,3.81-2.64,1.67,0,4.37-.97,3.68,2.97Z"/>
  <path class="cls-13" d="M77.69,84.33c1-2.37,1.82-4.29,2.73-6.44,1.85,1.99,2.7,3.99,2.7,6.37-1.67.93-3.24.72-5.43.07Z"/>
  <path class="cls-12" d="M266.13,82.47c-2.09.89-4.13.96-6.35.29-.81-1.89-.34-3.79-.37-5.77,2.67-1.26,4.91-.94,6.99.41,1.04,1.71,1.16,3.22-.27,5.08Z"/>
</svg>