<?xml version="1.0" encoding="UTF-8"?>
<svg id="_Слой_1" data-name="Слой 1" xmlns="http://www.w3.org/2000/svg" viewBox="0 0 161 146">
  <defs>
    <style>
      .cls-1 {
        fill: #6a9b3a;
      }

      .cls-1, .cls-2, .cls-3, .cls-4, .cls-5, .cls-6 {
        stroke-width: 0px;
      }

      .cls-2 {
        fill: #f6f9f3;
      }

      .cls-3 {
        fill: #689a36;
      }

      .cls-4 {
        fill: #673499;
      }

      .cls-5 {
        fill: #689a37;
      }

      .cls-6 {
        fill: #663499;
      }
    </style>
  </defs>
  <path class="cls-4" d="M46.5,58.25c5.7.4,11.34.76,16.97,1.2,3.14.25,4.49,1.89,4.72,5.19.74,10.43.73,20.93,2.35,31.3.4,2.56-.46,4.25-3.18,5.35-7.85,3.17-16.21,3.31-24.39,4.48-6.08.86-12.21,1.33-18.3,2.09-2.27.28-3.4-.07-4.31-2.64-1.76-4.99-1.88-10.14-2.12-15.22-.36-7.46-1.13-14.9-.71-22.41.21-3.82,1.92-5.64,5.33-6.72,7.75-2.47,15.77-1.98,23.64-2.6ZM23.01,71.08c.82,9.09,1.57,18.19,2.51,27.27.17,1.68-.28,4.21,3.15,3.67,11.14-1.76,22.31-3.33,33.47-4.94,1.53-.22,2.98-.07,2.52-2.49-1.63-8.52-1.7-17.18-1.8-25.81-.03-2.57-.55-3.74-3.53-3.92-10.46-.66-20.88-.96-31.36-.06-4.57.4-6.61,1.55-4.95,6.27Z"/>
  <path class="cls-6" d="M76.67,125.01c-2.85-.18-5.52-.18-8.15-.55-4.97-.69-6.02-2.84-3.21-7.05,3.5-5.24,7.4-10.22,10.99-15.39,5.49-7.91,10.68-16.01,14.3-24.99.89-2.2,1.93-4.38,4.88-4.15,2.64.2,3.6,2.32,4.24,4.34,3.82,12.02,8.82,23.58,13.56,35.25,2.5,6.17,1.78,7.56-4.66,9.02-10.57,2.4-21.37,2.84-31.95,3.53ZM70.75,118.88c11.97-.24,23.03-1.67,34.1-2.99,1.83-.22,2.82-.89,1.72-2.92-4.99-9.16-8.4-19-12.17-29.66-3.47,6.79-6.98,12.6-10.89,18.13-4,5.65-8.17,11.19-12.75,17.45Z"/>
  <path class="cls-4" d="M102.42,60.99c-1.81,0-2.14,0-2.47,0-6.13-.2-15.89-8.11-18.37-14.9-1.93-5.28.9-12.64,6.73-17.52,9.54-7.98,24.46-7.21,32.51,1.68,4.82,5.32,5.76,12.5,1.81,18.34-5.13,7.61-12.73,11.29-20.22,12.39ZM104.8,29.73c-6.18-.16-10.15,1.83-13.79,5.1-3.96,3.55-.59,7.45-.79,11.11-.31,5.45,4.1,9.08,9.6,9.25,5.15.16,9.24-2.37,13.16-5.21,3.5-2.54,6.22-5.8,5.46-10.44-.77-4.73-4.27-7.27-8.51-8.93-2.06-.81-4.21-.85-5.12-.88Z"/>
  <path class="cls-5" d="M123.12,71.28c.35,1.34.71,2.45.93,3.58.67,3.5.84,6.97,6.35,5.29,3.42-1.04,5.95,1.43,7.17,4.77,1.22,3.33-.13,5.87-2.74,7.82-1.18.88-2.56,1.57-3.93,2.14-6,2.5-8.72,1.02-9.68-5.44-.85-5.75-1.45-11.54-2.21-17.31-.47-3.55.51-5.81,4.56-6.02,1.97-.1,3.92-.97,5.88-.97,2.27,0,5.84-2.02,6.52,1.19.72,3.43-3.36,2.83-5.48,3.53-2.33.76-4.84.96-7.36,1.42ZM126.12,88.36c.27.59-.88,2.88,1.41,2.17,2.17-.67,5.17-1.06,5.34-4.17.1-1.77-1.57-2.33-3.19-2.14-2.22.25-4.36.68-3.56,4.14Z"/>
  <path class="cls-3" d="M66.34,47.03c-.16,1.8.14,2.99-1.04,3.42-1.35.49-2.15-.56-2.89-1.44-4.77-5.66-7.34-5.47-11.52.86-.77,1.16-1.31,3.26-3.19,2.11-1.48-.91-.4-2.63-.19-4.07.59-4.15,3.48-6.91,5.63-10.15,1.81-2.74,3.45-5.67,3.78-9.08.14-1.48.83-2.54,2.46-2.59,1.13-.04,2.21.71,2.23,1.62.15,7.06,3.46,13.37,4.73,19.33Z"/>
  <path class="cls-1" d="M49.84,113.55c-.3-2.24.54-3.72,2.71-4.11,3.02-.53,6.27-2.84,9.02-.8,1.63,1.21-.52,3.31-2.03,3.48-6.9.75-5.05,4.95-3.92,9.04.48,1.74.81,3.54,1.09,5.33.25,1.61.79,3.71-1.25,4.29-2.2.62-2.73-1.62-3.05-3.12-1-4.68-1.74-9.41-2.58-14.12Z"/>
  <path class="cls-2" d="M126.12,88.36c-.8-3.47,1.34-3.89,3.56-4.14,1.62-.18,3.29.37,3.19,2.14-.17,3.11-3.18,3.49-5.34,4.17-2.29.71-1.14-1.58-1.41-2.17Z"/>
</svg>