<?xml version="1.0" encoding="UTF-8"?>
<svg id="_Слой_1" data-name="Слой 1" xmlns="http://www.w3.org/2000/svg" viewBox="0 0 166 134">
  <defs>
    <style>
      .cls-1 {
        fill: #683599;
      }

      .cls-1, .cls-2, .cls-3, .cls-4, .cls-5, .cls-6 {
        stroke-width: 0px;
      }

      .cls-2 {
        fill: #ebf1e6;
      }

      .cls-3 {
        fill: #669935;
      }

      .cls-4 {
        fill: #6b3a9c;
      }

      .cls-5 {
        fill: #ede8f3;
      }

      .cls-6 {
        fill: #69379b;
      }
    </style>
  </defs>
  <path class="cls-5" d="M127.07,88.97c-2.28,1.07-5.53-3.52-7.18,1.23-3.97-2.66-3.89.24-4.11,2.93-.68,8.48-.18,17.14-3.79,25.18-1.14-1.46-2.87-1.7-4.47-1.95-5.59-.87-11.19-1.78-16.82-2.3-3.04-.28-4.6-.36-4.13-4.45.76-6.64-1.61-12.86-5.69-18.17-4.35-5.68-10.07-8.97-17.4-7.21-7.12,1.71-9.88,7.49-11.02,14.03-.57,3.24-.48,6.64-.36,9.95.09,2.42-.08,3.59-3.13,3.36-6.63-.51-13.32-.3-19.96-.77-10.15-.72-9.61-.52-8.24-10.01,3.58-24.86,8.81-49.48,11.38-74.51.29-2.81,1.49-3.74,4.23-3.24,7.93,1.45,15.88,2.8,24.28,4.27-2.31,3.66-3.75,7.22-4.35,11.01-.93,5.96-.78,11.73,4.62,15.89,6.35,4.88,20.43,4.01,26.2-1.59.94-.91,1.82-2.46,2.85-2.58,5.07-.59,4.93-4.16,4.82-7.76-.14-4.44-1.79-8.58-3.23-13.24,2.15.26,3.77.45,5.39.64.2,3.21-1.81,6.93,2.12,9.3,3.66,4.51,8.92,3.93,13.81,4.09,3.7.12,5.68.7,4.4,5.14-.91,3.16-1.16,6.56-1.31,9.88-.28,6.09,2.07,7.73,8,5.92.06,1.46.72,2.5,2.12,3.02.41,1.43-1.02,3.33,1.04,4.37,9.87-8.23,17.78-5.4,20.01,7.11.12.65.23,1.3.4,1.94,1.05,4.01-.76,6.08-4.63,6.31-4.12.24-8.26.09-12.39.26-1.37.06-3.63-.99-3.46,1.96Z"/>
  <path class="cls-1" d="M96.97,29.68c-1.62-.19-3.25-.39-5.39-.65,1.44,4.66,3.09,8.8,3.23,13.24.12,3.59.25,7.17-4.82,7.76-1.04.12-1.92,1.67-2.85,2.58-5.77,5.59-19.85,6.47-26.2,1.59-5.4-4.15-5.56-9.93-4.62-15.89.59-3.78,2.03-7.35,4.35-11.01-8.4-1.47-16.35-2.82-24.28-4.27-2.74-.5-3.95.43-4.23,3.24-2.56,25.03-7.8,49.65-11.38,74.51-1.37,9.49-1.91,9.29,8.24,10.01,6.64.47,13.33.26,19.96.77,3.06.24,3.22-.94,3.13-3.36-.12-3.31-.2-6.71.36-9.95,1.14-6.54,3.9-12.32,11.02-14.03,7.32-1.76,13.05,1.53,17.4,7.21,4.07,5.32,6.44,11.53,5.69,18.17-.47,4.09,1.1,4.17,4.13,4.45,5.63.52,11.23,1.43,16.82,2.3,1.6.25,3.34.49,4.47,1.95.03.64.07,1.29.1,1.93-1.56,1.97-3.8,2.02-5.94,1.77-7.43-.87-14.85-1.92-22.28-2.86-2.07-.26-2.78-.87-2.07-3.21,2.76-9.19-.98-16.68-6.98-23.19-5.75-6.24-13.64-4.52-16.52,3.39-1.95,5.36-3.02,10.88-1.54,16.58,1,3.84-.75,5.36-4.35,5.19-8.31-.39-16.65-.58-24.93-1.39-10.2-1-12.81-4.42-12.55-16.07.23-10.36,2.94-20.4,4.68-30.56,2.64-15.42,5.37-30.81,8.06-46.22.03-.16.06-.33.1-.49.58-2.29-3.14-4.97.69-7,2.82-1.5,5.1.72,7.67.97,10.42,1.01,20.58,3.46,30.75,5.85,2.6.61,2.73,1.97,1.2,3.94-3.5,4.51-4.91,9.71-5.1,15.36-.16,4.68,2.12,7.12,6.64,7.71,6.08.79,11.93-.62,17.76-1.99,2.34-.55,2.42-2.54,2.32-4.39-.24-4.51-.7-9.1-3.21-12.94-2.1-3.21-.77-4.45,2.14-5.21,5.64-1.48,11.17-1.31,16.44,1.48-1.68,3.97-5.5,1.55-8.12,2.72Z"/>
  <path class="cls-3" d="M123.98,64c-5.93,1.82-8.28.17-8-5.92.15-3.31.4-6.72,1.31-9.88,1.28-4.44-.71-5.01-4.4-5.14-4.89-.16-10.15.41-13.81-4.09.1-3.33,1.86-4.63,5.11-4.48,3.79.18,7.59,0,11.37.26,3.19.21,4.22-1.04,4.53-4.19.59-5.97.22-12.25,4.02-17.51,1.56-1.13,2.93-3.01,5.23-1.89,2.21,1.09,1.99,3.19,1.89,5.21-.23,4.8-.07,9.66-.77,14.39-.54,3.65.9,4.09,3.9,4.19,3.96.13,7.92.69,11.86,1.18,3.14.39,5.5,1.8,5.03,5.44-.44,3.47-2.94,4.69-6.1,4.42-4.12-.35-8.25-.81-12.31-1.57-3.05-.57-4.1.61-4.58,3.42-.92,5.5-2.05,10.98-4.3,16.15Z"/>
  <path class="cls-6" d="M127.07,88.97c-.17-2.95,2.09-1.9,3.46-1.96,4.13-.17,8.27-.01,12.39-.26,3.88-.23,5.68-2.3,4.63-6.31-.17-.64-.28-1.29-.4-1.94-2.22-12.51-10.14-15.34-20.01-7.11-2.06-1.04-.64-2.94-1.04-4.37,1.24-.81,2.42-1.72,3.72-2.41,10.08-5.39,18.4-2.02,21.88,8.82,4.51,14.09-.38,20.35-15.12,19.39-3.61-.23-6.81-1.41-9.51-3.85Z"/>
  <path class="cls-2" d="M124.12,13.05c-3.79,5.26-3.42,11.54-4.02,17.51-.31,3.15-1.34,4.4-4.53,4.19-3.78-.25-7.59-.08-11.37-.26-3.25-.15-5.01,1.16-5.11,4.48-3.92-2.37-1.91-6.08-2.12-9.3,2.62-1.17,6.44,1.25,8.12-2.72,1.3-.12,2.67-.57,3.88-.3,2.95.66,3.96-.65,4.06-3.31.02-.65.18-1.3.32-1.94q1.89-8.51,10.77-8.35Z"/>
  <path class="cls-4" d="M112.09,120.24c-.03-.64-.07-1.29-.1-1.93,3.61-8.04,3.11-16.7,3.79-25.18.22-2.69.14-5.59,4.11-2.93.55,8.48.29,16.88-1.35,25.29-.79,4.07-2.43,5.69-6.45,4.75Z"/>
</svg>