<?xml version="1.0" encoding="UTF-8"?>
<svg id="_Слой_1" data-name="Слой 1" xmlns="http://www.w3.org/2000/svg" viewBox="0 0 204 152">
  <defs>
    <style>
      .cls-1 {
        fill: #d0e0c1;
      }

      .cls-1, .cls-2, .cls-3, .cls-4, .cls-5, .cls-6, .cls-7, .cls-8, .cls-9, .cls-10, .cls-11, .cls-12, .cls-13, .cls-14, .cls-15 {
        stroke-width: 0px;
      }

      .cls-2 {
        fill: #b2cb99;
      }

      .cls-3 {
        fill: #6d3d9d;
      }

      .cls-4 {
        fill: #6a399b;
      }

      .cls-5 {
        fill: #b298cb;
      }

      .cls-6 {
        fill: #71a043;
      }

      .cls-7 {
        fill: #6b9c3b;
      }

      .cls-8 {
        fill: #afc995;
      }

      .cls-9 {
        fill: #689a36;
      }

      .cls-10 {
        fill: #6e3f9e;
      }

      .cls-11 {
        fill: #709f42;
      }

      .cls-12 {
        fill: #6f9f40;
      }

      .cls-13 {
        fill: #673499;
      }

      .cls-14 {
        fill: #ccddbc;
      }

      .cls-15 {
        fill: #68369a;
      }
    </style>
  </defs>
  <path class="cls-13" d="M90.93,132.31c-6.18,3.09-11.42,2.74-20.44-1.12-.71,3-1.22,6.1-3.4,8.43-.54.58-1.23,1.31-2.12.78-.8-.48-.85-1.35-.54-2.2.06-.16.1-.33.2-.46,5.16-6.24,1.22-10.27-2.54-15.61-10.96-15.59-10.71-32.14-.82-48.25,13.62-22.18,39.25-33.86,62.82-23.89,18.06,7.63,30.56,27.84,28.02,45.78-1.07,7.51-4.58,13.8-9.99,19.07-10.08,9.82-21.93,15.32-36.24,14.94,8.3-2.47,16.01-6.16,23.15-11.01,11.51-7.81,20.1-17.59,17.84-32.6-2.3-15.23-10.96-26.35-25.22-32.3-20.63-8.61-45.19,1.55-57.58,23.35-4.55,8.01-7.09,16.57-5.51,25.84,3.33,19.55,12.14,27.56,32.38,29.26Z"/>
  <path class="cls-15" d="M124,41c-.55-4.46,2.69-6.38,5.88-8.58-1.28-1.14-2.51-2.22-3.73-3.32-13.52-12.26-30.16-12.5-44.21-.55-2.12,1.8-5.45,4.3-3.96,6.73,1.27,2.08,2.96,5.48,6.81,5.46,2.85-.01,2.65,1.97,1.58,3.81-.48.84-1.31,1.51-2.08,2.14-8.03,6.65-16.08,13.28-24.6,20.01,2.29-3.54-.8-5.1-2.03-7.45-2.35-4.48-1.74-9,.95-13.23,1.02-1.6,2.7-2.89.69-5.1-.91-1-.27-2.54,1.09-3.36,1.63-.98,2.45-.31,2.86,1.32.1.42.28.81.43,1.22,3.79-2.14,7.79-4.01,11.26-6.59,1.11-.83,1.42-3.23,2.6-4.67,12.42-15.21,37.97-16.48,50.23-1.53,4.61,5.62,9.96,2.49,14.66,4.39,1.18.47,1.32-1.64,2.07-2.46.95-1.03,1.99-1.93,3.44-1.13,1.51.83,1.42,2.51.7,3.5-1.93,2.62-.66,4.62.4,7.1,2.57,6.02,2.42,11.97-2.05,17.28-4.21-1.13-.71-3.47-.45-4.85.98-5.15.89-10-3-13.84-3.16-3.12-7.16-2.86-11.14-1.51-3.21,1.09-5.47,3.68-8.4,5.2ZM59.03,54.61c-.1,1.93.2,4.57,2.37,5.7,2.29,1.19,3.25-1.63,4.55-2.86,4.09-3.89,8.07-7.88,12.44-11.48,1.21-1,3.8-1.96,2.71-4.04-.97-1.85-3.12-2.8-5.47-2.92-7.16-.38-16.44,8.04-16.59,15.61Z"/>
  <path class="cls-9" d="M98.87,96.3c-4.72-.92-9.07.58-13.49.82-4.54.25-5.39-.64-3.51-4.63,3.32-7.05,6.95-13.96,10.51-20.9.59-1.15,1.33-2.35,2.82-2.6,6.55-1.07,13.05-2.62,19.76-2.38,1.09.04,2.49-.31,2.97,1.16.43,1.31-.61,2.18-1.33,3.04-2.73,3.29-5.51,6.53-8.6,10.17,4.84,0,9.07-.01,13.29,0,1.38,0,2.89.28,3.47,1.54.78,1.67-.63,2.8-1.77,3.74-10.25,8.55-19.08,18.54-28.44,27.99-1.99,2.01-3.9,4.06-5.32,6.56-.73,1.28-1.78,2.9-3.49,1.72-1.44-.99-.99-2.67-.14-4.04,2.8-4.51,5.67-8.98,8.41-13.53,1.68-2.78,3.95-5.26,4.84-8.68ZM113.58,69.16c-5.88.72-11.11,1.4-16.35,1.96-1.35.14-2.12.76-2.62,1.91-2.78,6.47-5.56,12.95-8.52,19.84,4.8-.07,9.02-1.31,13.33-.88,4.1.4,5.3,2.22,3.64,5.9-.82,1.81-1.82,3.54-2.74,5.31,7.12-6.97,15.91-11.9,22.76-19.91-6.12-.7-11.12.7-16.19,1.26-1.25.14-2.71,1.09-3.56-.45-.81-1.46.61-2.39,1.35-3.44,2.66-3.77,6.34-6.74,8.91-11.5Z"/>
  <path class="cls-5" d="M124,41c2.93-1.52,5.19-4.11,8.4-5.2,3.98-1.35,7.98-1.61,11.14,1.51,3.89,3.84,3.98,8.69,3,13.84-.26,1.38-3.76,3.71.45,4.85-.62.63-1.25,1.25-1.87,1.88-7.41-5.56-14.82-11.11-22.23-16.67.37-.07.73-.14,1.1-.21Z"/>
  <path class="cls-7" d="M162.91,68.92c-.6.29-1.21.54-1.79.86-6.07,3.45-7.44,2.95-10.88-3.99.28-.09.73-.34.8-.26,4.12,4.87,8.04,2.63,12.3.03,2.4-1.47,5.91-4.44,7.96-1.97,1.76,2.13-2.31,4.44-3.77,6.69-1.41,2.16-4.06,3.44-4.57,6.59,4.88-.07,9.11-2.16,13.54-3.21,6.8-1.61,13.71-2.39,20.6-3.39,1.34-.19,3.07-.42,3.38,1.16.3,1.5-1.4,2.08-2.65,2.49-1.79.59-3.28,1.29-5.57.46-3.97-1.45-8.09.64-12.14,1.24-6.39.93-12.27,4.1-18.82,4.4-1.06.05-2.43.75-3.16-.58-.68-1.24.33-2.24.99-3.13,1.58-2.12,3.28-4.16,4.94-6.22,1.03-.67,2.05-1.35,2.35-3.24-1.41.82-2.78.78-3.52,2.07Z"/>
  <path class="cls-7" d="M31.15,131.66c7.3-1.51,13.62-5.91,21.82-6.96-1.91,2.49-4.15,3.01-6.13,3.85-7.65,3.22-15.53,5.91-22.6,10.4-1.06.67-2.46,1.84-3.56.44-1.12-1.44.5-2.41,1.35-3.27,6.1-6.14,12.84-11.65,18.34-18.39.91-1.11,4.44-2.84-.31-3.77-.99-.19-.82-1.32-.32-2.07.74-1.11,1.35-2.42,2.37-3.18,1.47-1.1,2.16-4.63,4.08-3.28,2.01,1.42-1.49,3.11-1.58,5.19,4.6-.22,3.48,1.75,1.57,4.21-4.59,5.93-9.91,11.19-15.03,16.83Z"/>
  <path class="cls-11" d="M44.41,85.55c-5.78.02-10.27-2.25-14.98-3.61-1.14-.33-1.62-1.23-1.33-2.32.3-1.13,1.36-1.41,2.39-1.39,3.83.09,7.65.23,11.47.38,1.81.07,3.61.19,5.51.3-.17-2.44-2.22-5.16.52-6.5,2.57-1.26,5.43-.5,8,1.68-1.72,2.22-3.95.38-5.61,1.21-.1.27-.33.57-.3.85.2,2.1,3.9,3.3,2.19,5.5-1.42,1.82-4.09.19-6.19.08-2.98-.15-5.95-.56-9.53-.92,2.19,2.68,5.66,1.61,7.85,4.74Z"/>
  <path class="cls-4" d="M122.9,41.21c7.41,5.56,14.82,11.11,22.23,16.67.77.67,1.73,1.66,1.1,2.47-.81,1.03-1.73-.18-2.49-.69-7.52-5.08-15.07-10.12-22.52-15.3-1.43-1-4.47-1.81-3.15-4.03,1.13-1.91,3.15.61,4.83.89Z"/>
  <path class="cls-3" d="M95.9,36.5c3.51-3.32,7.5-3.97,11.8-3.21.78.14,1.52.75,1.51,1.72,0,.92-.54,1.74-1.43,1.68-3.23-.23-3.29,1.52-2.83,3.95.23,1.24.3,2.99-1.52,3.06-1.42.05-2.63-1.29-2.38-2.65.85-4.52-2.33-3.99-5.17-4.55Z"/>
  <path class="cls-12" d="M162.66,120.81c-.87-.4-1.99-.73-2.88-1.38-1.62-1.19-4.84-1.74-4.12-4.15.75-2.5,3.55.04,5.69-.83-.63-.67-1.23-1.24-1.75-1.89-.91-1.15-3.69-1.96-1.97-3.68,1.4-1.4,2.71,1.02,3.9,1.93,1.17.9,2.31,1.95,3.12,3.17.78,1.19.89,2.73-1.08,2.99-5.37.69.26,2.31-.91,3.84Z"/>
  <path class="cls-10" d="M143.8,136.8c-5.17-2.37-7.45-7.41-11.09-11.02-.41-.41-.76-1.25.12-1.63.55-.23,1.29-.3,1.86-.15,2.95.77,8.74,8.81,9.1,12.79Z"/>
  <path class="cls-6" d="M173.87,83.86c-3.37.6-5.28,3.77-8.56,4.74-1.85.55-1,2.84-.69,4.46.38,1.97,1.58,4.06-.95,6.26-.6-2.76-1.22-5.02-1.57-7.32-.57-3.71.2-6.56,4.66-7.23,2.11-.32,4.12-1.23,6.18-1.87.31.32.63.64.94.96Z"/>
  <path class="cls-8" d="M173.87,83.86c-.31-.32-.63-.64-.94-.96,2.44-1.71,5.31-2.07,8.35-2.12-2.47,1.03-4.94,2.05-7.4,3.08Z"/>
  <path class="cls-14" d="M192.15,75.6c-1.74,1.77-3.37,2.06-5.96,2.38,2.05-1.69,3.41-2.64,5.96-2.38Z"/>
  <path class="cls-1" d="M162.91,68.92c.75-1.28,2.12-1.25,3.52-2.07-.31,1.89-1.32,2.57-2.35,3.24-.39-.39-.78-.78-1.17-1.17Z"/>
  <path class="cls-5" d="M59.03,54.61c.15-7.58,9.43-15.99,16.59-15.61,2.35.12,4.5,1.07,5.47,2.92,1.09,2.08-1.5,3.04-2.71,4.04-4.36,3.61-8.35,7.59-12.44,11.48-1.3,1.24-2.26,4.05-4.55,2.86-2.17-1.13-2.47-3.77-2.37-5.7Z"/>
  <path class="cls-2" d="M113.58,69.16c-2.57,4.76-6.25,7.73-8.91,11.5-.74,1.05-2.16,1.98-1.35,3.44.85,1.54,2.31.59,3.56.45,5.07-.57,10.07-1.96,16.19-1.26-6.84,8.01-15.63,12.94-22.76,19.91.92-1.77,1.92-3.5,2.74-5.31,1.66-3.68.46-5.5-3.64-5.9-4.31-.42-8.52.82-13.33.88,2.96-6.89,5.74-13.36,8.52-19.84.5-1.15,1.27-1.77,2.62-1.91,5.24-.56,10.47-1.25,16.35-1.96Z"/>
</svg>