<?xml version="1.0" encoding="UTF-8"?>
<svg id="_Слой_1" data-name="Слой 1" xmlns="http://www.w3.org/2000/svg" viewBox="0 0 513 377.06">
  <defs>
    <style>
      .cls-1 {
        fill: #7e68ac;
      }

      .cls-2 {
        fill: #8773b2;
      }

      .cls-3 {
        fill: #8c77b4;
      }
    </style>
  </defs>
  <path class="cls-1" d="M245,377h-2c-.5-1.26-1.79-1.38-2.78-1.91-8.24-4.38-11.94-11.23-11.29-20.5,.4-5.66,3.68-9.79,7.1-13.96,16.04-19.53,18.1-46.65,5.33-68.21-12.96-21.88-37.92-33.29-62.68-28.67-45.91,8.58-65.04,62.53-34.74,98.17,4.06,4.77,6.77,9.84,6.37,16.24-.62,9.93-6.76,15.35-15.32,18.82h-2c-2.48-1.38-5.19-.98-7.83-.99-38.14-.02-76.28-.01-114.43-.02q-8.73,0-8.74-8.92c0-118.76,0-237.51,0-356.27q0-8.8,8.86-8.81c41.47-.04,82.94-.08,124.42-.12,15.11,3.68,20.09,21.16,9.46,33.65-13.08,15.37-17.69,32.95-13.67,52.62,6.37,31.14,37.87,52.07,69.15,46.21,32.42-6.06,54.18-36.28,49.12-68.01-1.98-12.4-7.42-22.95-15.67-32.32-5.14-5.83-6.34-12.87-3.5-20.1,2.56-6.52,7.07-11.22,14.55-12.06,44.41,.04,88.82,.08,133.23,.12,.07,9.82,.2,19.63,.21,29.45,.03,32.3-.02,64.59,.03,96.89,.02,11.39,6.68,19.71,17.05,21.36,7.35,1.17,13.09-2.03,18.59-6.61,35.19-29.28,87.82-11.32,97.96,33.3,.28,1.22-.18,2.74,1.22,3.6v5c-1.33,2.67-1.34,5.33,0,8v7c-1.67,.76-1.5,2.47-1.88,3.83-11.9,43.27-62.77,59.35-97.43,30.63-7.36-6.1-15.12-8.49-23.97-4.32-8.7,4.11-11.64,11.61-11.6,20.91,.13,34.65,.06,69.31,.04,103.96,0,6.99-.14,13.98-.21,20.98-41.71,0-83.42,0-125.14,.02-2.63,0-5.34-.42-7.81,.98Z"/>
  <path class="cls-2" d="M135,1c.07,.3,.16,.6,.27,.88-41.47,.04-82.94,.08-124.42,.12q-8.85,0-8.86,8.81c0,118.76,0,237.51,0,356.27q0,8.91,8.74,8.92c38.14,0,76.28,0,114.43,.02,2.64,0,5.36-.39,7.83,.99-42.8,0-85.6-.02-128.4,.06-2.69,0-3.71-.18-3.7-3.45,.12-123.07,.12-246.14,0-369.21,0-3.28,1.01-3.46,3.7-3.45,43.47,.08,86.93,.06,130.4,.06Z"/>
  <path class="cls-2" d="M244.72,1.88c.06-.3,.15-.6,.28-.88,44.33,0,88.67,0,133,0-.02,.34-.03,.67-.05,1.01-44.41-.04-88.82-.08-133.23-.12Z"/>
  <path class="cls-2" d="M377.95,375.99l.05,1.01H245c2.47-1.4,5.18-.98,7.81-.98,41.71-.02,83.42-.02,125.14-.02Z"/>
  <path class="cls-3" d="M513,193c-1.34-2.67-1.33-5.33,0-8v8Z"/>
</svg>