<?xml version="1.0" encoding="UTF-8"?>
<svg id="_Слой_1" data-name="Слой 1" xmlns="http://www.w3.org/2000/svg" viewBox="0 0 90 90">
  <defs>
    <style>
      .cls-1 {
        fill: #fefefe;
      }

      .cls-1, .cls-2, .cls-3, .cls-4, .cls-5, .cls-6 {
        stroke-width: 0px;
      }

      .cls-2 {
        fill: #6f409e;
      }

      .cls-3 {
        fill: #6d9c3d;
      }

      .cls-4 {
        fill: #9370b7;
      }

      .cls-5 {
        fill: #9270b6;
      }

      .cls-6 {
        fill: #afc996;
      }
    </style>
  </defs>
  <path class="cls-2" d="M89.98,43.68v7.92c-1.02,3.4-2.69,6.53-5.37,8.79-1.9,1.61-2.33,3.28-2.54,5.61-.67,7.4-5.67,13.93-13.29,15.56-2.26.48-4.51.4-6.76-.1-1.75-.39-2.06-.24-3.09,1.24-2.27,3.25-5.22,5.6-8.99,6.89-.48.16-1.02.05-1.45.39h-7.44c-4.46-1.16-7.69-3.98-10.24-7.68-.59-.85-1.25-1.12-2.23-.95-2.99.52-5.97.52-8.89-.39-6.34-1.99-10.01-6.43-11.54-12.77-.37-1.55-.55-3.15-.49-4.75.03-.75-.21-1.34-.81-1.76-2.83-1.96-4.43-4.88-6.03-7.79-.43-.78-.66-1.68-.66-2.61.06-3.02-.13-6.04.1-9.05.03-1.74,1.11-3.04,1.96-4.41,1.36-2.18,2.94-4.2,5.12-5.63.93-.61,1.14-1.35.93-2.45-.9-4.73-.58-9.33,2.07-13.51,3.19-5.02,7.8-7.63,13.74-7.92,1.53-.07,3.04.07,4.53.34,1,.18,1.68-.17,2.22-1.01,1.97-3.09,4.85-5.16,8-6.87.75-.41,1.62-.63,2.51-.63,2.28,0,4.56,0,6.83,0,3.07.17,5.44,1.85,7.68,3.72,1.22,1.02,2.31,2.19,3.18,3.56.85,1.35,1.22,1.44,2.8,1.13,3.96-.79,7.83-.59,11.35,1.52,5.5,3.3,8.65,8.13,8.99,14.64.09,1.68.01,3.36-.47,4.98-.35,1.18.07,1.98,1.06,2.64,2.75,1.8,4.61,4.36,6.08,7.25.67,1.31.74,2.75,1.15,4.11Z"/>
  <path class="cls-1" d="M89.98,43.68c-.84-1.26-1.19-2.75-1.87-4.09-1.49-2.95-3.42-5.48-6.33-7.16-1.09-.63-1.05-1.58-.77-2.61,1.93-7.2-1.09-14.86-7.43-18.84-3.73-2.34-7.77-2.7-11.99-1.78-1.9.41-1.99.37-2.99-1.27-1.87-3.09-4.69-5.05-7.85-6.63-.75-.37-1.52-.7-2.28-1.04-.16-.08-.17-.16,0-.24C61.99.02,75.5.03,89.02,0c.82,0,.98.16.98.98-.03,14.23-.02,28.47-.02,42.7Z"/>
  <path class="cls-1" d="M41.02.25c-3.76,1.98-7.49,4.04-9.72,7.85-.74,1.27-1.53,1.44-2.83,1.17C16,6.67,5.73,17.51,8.93,29.88c.32,1.25.18,2.08-1.07,2.74-1.65.87-2.87,2.28-3.94,3.78-1.28,1.78-2.39,3.67-3.43,5.6-.12.15-.19.4-.47.26C.02,28.47.03,14.7,0,.92,0,.18.17,0,.92,0c13.37.03,26.75.02,40.12.02.17.09.16.17-.02.22Z"/>
  <path class="cls-1" d="M48.48,89.98c.27-.57.88-.62,1.37-.85,3.77-1.74,7.07-4,9.15-7.74.63-1.14,1.65-.91,2.64-.66,4.84,1.23,9.29.37,13.22-2.68,4.59-3.57,6.7-8.42,6.77-14.15.02-1.32.29-2.22,1.46-2.98,2.67-1.75,3.98-4.61,5.54-7.25.42-.71.7-1.52,1.36-2.08,0,12.5,0,24.99.02,37.49,0,.75-.18.92-.92.91-13.53-.03-27.07-.02-40.6-.02Z"/>
  <path class="cls-1" d="M.24,51.63c1.1,1.94,2.12,3.93,3.36,5.78,1.03,1.54,2.23,2.92,3.82,3.91.75.46.97,1.1.91,1.92-.56,6.93,3.36,13.63,9.67,16.46,3.35,1.49,6.85,1.74,10.43,1.05,1.89-.37,1.89-.38,2.87,1.23,2.01,3.29,5.06,5.35,8.36,7.13.48.26,1.05.38,1.38.88-13.37,0-26.75,0-40.12.02-.74,0-.92-.16-.92-.92.03-12.5.02-24.99.02-37.49.1-.17.17-.16.22.03Z"/>
  <path class="cls-5" d="M.24,51.63s-.11.01-.11.01l-.11-.04c0-3.12,0-6.24,0-9.36.16-.09.31-.17.47-.26-.46,2.21-.14,4.44-.22,6.66-.04.99-.02,1.99-.02,2.98Z"/>
  <path class="cls-4" d="M41.02.25c0-.08,0-.15.02-.22h7.44c-.01.08-.01.16,0,.24-2.49,0-4.98,0-7.46-.01Z"/>
  <path class="cls-1" d="M64.98,78.46c-1.13.09-2.36-.07-3.57-.34-1.92-.42-3.39.22-4.45,1.8-1.24,1.84-2.66,3.52-4.43,4.83-5.74,4.25-12.66,3.44-17.33-2-.78-.91-1.47-1.89-2.17-2.86-1.12-1.56-2.54-2.18-4.47-1.74-3.52.82-7.01.69-10.26-1.03-4.8-2.54-7.05-6.74-7.53-12.02-.07-.79-.1-1.57.02-2.38.2-1.23-.48-2.15-1.32-2.93-.93-.87-1.98-1.63-2.87-2.54-6.11-6.2-5.1-17.05,2.01-22,2.89-2.01,3.26-2.96,2.57-6.35-1.11-5.46.14-10.26,4.29-14.07,3.58-3.29,7.73-4.66,12.58-3.19,2.54.77,3.74.27,5.34-2.1,1.63-2.42,3.63-4.45,6.26-5.78,4.35-2.18,9.6-1.43,13.41,1.86,1.53,1.32,2.78,2.85,3.93,4.49,1.33,1.91,2.54,2.29,4.74,1.55,5.33-1.79,11.01.27,14.64,5.39,2.67,3.76,3.56,7.86,2.27,12.37-.7,2.47-.09,4.02,2.32,5.55,6.91,4.41,8.1,13.81,4.2,20.03-.79,1.26-1.74,2.4-2.95,3.28-2.17,1.59-3.02,3.7-3.12,6.39-.18,5.07-2.14,9.3-6.68,11.99-2.25,1.33-4.73,1.87-7.46,1.76Z"/>
  <path class="cls-3" d="M30.06,42.9c1.79-.02,3.22.75,4.47,1.98,1.34,1.31,2.77,2.54,4.1,3.86.69.69,1.03.6,1.57-.21,4.28-6.5,8.61-12.97,12.92-19.45,1.1-1.66,2.3-3.25,4.46-3.49,2.53-.29,4.81.31,6.35,2.48,1.48,2.09,1.08,4.23-.21,6.27-5.99,9.48-12.32,18.73-18.68,27.96-2.02,2.93-5.87,3.36-8.55.81-3.64-3.48-7.19-7.05-10.68-10.68-1.7-1.77-1.99-3.98-1-6.24.98-2.25,2.86-3.23,5.25-3.29Z"/>
  <path class="cls-6" d="M61.93,31.12c.06.98-.33,1.85-.87,2.66-5.79,8.68-11.58,17.35-17.37,26.02-.24.36-.52.71-.82,1.03-1.36,1.46-2.73,1.65-4.36.49-.87-.62-1.67-1.37-2.44-2.12-2.45-2.41-4.87-4.85-7.29-7.29-.37-.37-.72-.75-1.03-1.16-1.22-1.62-1.18-3.03.09-4.3,1.28-1.28,2.84-1.37,4.41-.11,1.78,1.42,3.39,3.04,4.97,4.69,2.33,2.44,2.95,2.38,4.83-.47,4.28-6.46,8.57-12.92,12.86-19.38.55-.83,1.1-1.68,1.85-2.35,1.09-.97,2.33-.95,3.59-.43,1.2.49,1.61,1.47,1.58,2.72Z"/>
</svg>