<?xml version="1.0" encoding="UTF-8"?>
<svg id="_Слой_1" data-name="Слой 1" xmlns="http://www.w3.org/2000/svg" viewBox="0 0 216 144">
  <defs>
    <style>
      .cls-1 {
        fill: #7e69ab;
      }

      .cls-2 {
        fill: #8571b0;
      }

      .cls-3 {
        fill: #7cbc64;
      }

      .cls-4 {
        fill: #7bbb62;
      }

      .cls-5 {
        fill: #d1c9e1;
      }

      .cls-6 {
        fill: #7e68ab;
      }

      .cls-7 {
        fill: #826eae;
      }

      .cls-8 {
        fill: #cac1dc;
      }
    </style>
  </defs>
  <path class="cls-6" d="M157.09,91.88c-12.02,2.91-24.05,.63-36.06-.03-18.53-1.02-37.05-2.26-55.57-3.54-7.12-.49-6.15-.48-4.91-7.21,1.4-7.6,1.95-15.74,.72-23.3-.76-4.68,.94-5.72,3.8-6.9,5.24-2.16,10.86-3.21,16.46-3.51,26.74-1.45,53.36-.93,79.37,6.66,1.58,.46,3.21,.99,4.59,1.85,1.95,1.2,3.87,2.8,.74,4.81-1.67,1.08-1.21,2.6-1.23,4-.13,8.13-.25,16.27-.24,24.4,0,3.17-1.47,2.79-3.44,1.8-4.9-3.25-10.6-3.04-16.08-3.75-12.14-1.69-24.31-2.71-36.58-1.53,10.81,.83,21.63,1.67,32.44,2.5,5.18,1.88,11.06,.75,15.98,3.75Zm-51.41-39.76c-1.99,0-3.98,0-5.96,0-10.62-.06-21.21,.14-31.54,3.02-1.31,.37-3.84,.07-2.72,2.84,2.31,5.71,1.87,11.7,1.57,17.59-.2,3.81,.69,4.67,4.58,4.57,28-.73,55.99-.77,83.66,4.51,3.07,.58,3.28-.58,3.35-2.98,.18-6.32,.16-12.68,.96-18.92,.45-3.49-.8-4.25-3.64-4.92-16.54-3.86-33.33-5.32-50.25-5.71Z"/>
  <path class="cls-1" d="M181.87,64.51c6.84-4.83,14.08-4.58,20.66-6.59-.57-2.27-2.49-2.23-3.88-2.83-29.89-12.88-60.99-22.35-91.71-32.88-5.16-1.77-10.27-5.57-15.28-5.36-4.74,.2-9.17,4.78-13.98,6.87-18.55,8.08-37.13,16.06-55.06,25.49-1.54,.81-3.46,1.09-4.72,3.11,4.72,1.8,9.36,3.36,13.81,5.37,1.98,.89,5.25,2.35,4.4,4.62-.99,2.65-4.38,1.54-6.63,.82-5.36-1.71-10.87-3.08-15.82-5.89-4.18-2.37-4.58-5.07-1.01-8.23,9.46-8.38,20.95-13.39,32.26-18.47,13.89-6.24,28.1-11.75,42.22-17.47,4.65-1.89,9.3,0,13.58,1.29,37.16,11.08,74.11,22.79,109.03,40.05,1.64,.81,4.16,1.12,3.85,3.88-.31,2.73-2.21,3.75-4.7,4.36-8.53,2.07-17.04,4.16-27.01,1.86Z"/>
  <path class="cls-4" d="M78.9,132.39c14.5-4.72,28.68-6.07,42.57-8.86,1.13-.23,2.28-.45,3.43-.5,2-.08,4.5-.21,4.89,2.25,.38,2.36-2.12,2.48-3.79,3.05-12.29,4.17-25.05,5.99-37.83,7.74-6.82,.93-13.47-.92-20.17-1.65-3.42-.37-6.39-2.29-7.27-5.93-.77-3.18-.3-6.38,2.19-8.8,1.8-1.74,4.12-2.78,6.08-.5,1.63,1.91,1.65,3.91-1.45,4.87-1.37,.42-1.39,1.91-.76,2.95,1.1,1.81,3,1.88,4.86,1.62,1.81-.25,2.47-1.41,2.29-3.19-.39-3.89-1.84-7.45-3.76-10.75-2.27-3.9-1.36-5.52,3.08-6.21,6.13-.96,12.23-.48,18.33-.29,10.75,.34,21.49,.98,32.24,1.51,.99,.05,2,.08,2.95,.32,1.25,.32,2.79,.6,2.67,2.38-.09,1.42-1.33,1.8-2.51,1.95-1.97,.25-3.94,.48-5.92,.57-13.43,.56-26.81-.75-40.22-1.09-3.53-.09-4.95,.22-3.04,4.25,1.97,4.15,3.59,8.64,1.14,14.31Z"/>
  <path class="cls-4" d="M148.51,107.89c5.31-3.11,10.93-3.38,16.43-4.1,8.52-1.12,17.1-1.97,25.26-4.91,1.55-.56,3.13-1.16,4.53-2.01,4.62-2.8,7.68-2.07,10.06,2.95,2.46,5.18,3.29,10.78,3.21,16.48-.04,2.5-1.04,4.92-3.91,4.8-3.18-.14-1.8-3.04-1.9-4.73-.25-4.18-1.2-8.21-1.93-12.3-.65-3.63-1.71-3.12-4.48-1.63-13.07,7.03-27.26,8.67-41.83,7.76-1.72-.11-3.7-.17-5.44-2.32Z"/>
  <path class="cls-3" d="M3.23,94.71c-.35-1.75,.83-2.93,1.93-3.66,5.3-3.54,6.25-8.47,5.61-14.45-.47-4.42,.05-8.96,.16-13.44,.04-1.71,.19-3.69,2.37-3.68,2.02,0,2.61,1.82,2.61,3.6,.01,5.32,.42,10.69-.22,15.93-.6,4.95,2.87,7.44,4.87,10.9,1.13,1.95,4.45,4.15,1.53,6.28-3.17,2.31-4.27-1.52-5.77-3.49-.37-.48-.77-.94-1.57-1.91-.73,2.88-1.19,5.27-1.97,7.54-.5,1.47-1.06,3.77-3.12,3.1-1.87-.61-1.29-2.75-1.02-4.4,.15-.96,.2-1.93,.3-2.97-2.14-.85-3.67,1.87-5.71,.66Z"/>
  <path class="cls-3" d="M153.32,126.08c6.17-2.27,11.03-3.01,15.97-3.08,11.07-.17,22.15-.19,33.22-.25,1.09,0,2.66-.49,2.99,.93,.42,1.79-1.44,1.91-2.55,2.39-3.44,1.49-7.16,1.19-10.77,1.36-11.71,.55-23.43,1.6-35.12-.28-.75-.12-1.48-.41-3.74-1.06Z"/>
  <path class="cls-7" d="M152.05,121.5c.11,1.73-.15,3.3-1.32,4.66-.88,1.03-1.75,2.13-3.22,1.95-1.87-.23-1.56-2-1.67-3.15-.52-5.06-2.35-9.59-5.02-13.86-.85-1.36-1.93-3.05-.12-4.41,1.67-1.26,3.16-.11,4.4,1,4.11,3.69,6.32,8.36,6.95,13.81Z"/>
  <path class="cls-2" d="M141.21,118.65c.09,3.64-.51,5.81-2.75,6.17-3.02,.49-1.98-2.4-2.38-3.9-.82-3.08-1.81-6.05-3.68-8.66-.73-1.02-1.16-2.08-.19-3.15,1.26-1.38,2.52-.47,3.52,.3,3.48,2.68,5.12,6.39,5.49,9.24Z"/>
  <path class="cls-8" d="M145.25,87.16c5.48,.72,11.18,.5,16.08,3.75-1.41,.32-2.82,.64-4.24,.97-4.92-3-10.8-1.87-15.98-3.75,1.38-.34,2.99,.34,4.14-.97Z"/>
  <path class="cls-5" d="M145.25,87.16c-1.15,1.31-2.76,.63-4.14,.97-10.82-.83-21.63-1.67-32.44-2.5,12.27-1.18,24.44-.16,36.58,1.53Z"/>
</svg>