<?xml version="1.0" encoding="UTF-8"?>
<svg id="_Слой_1" data-name="Слой 1" xmlns="http://www.w3.org/2000/svg" viewBox="0 0 216 203">
  <defs>
    <style>
      .cls-1 {
        fill: #92c77d;
      }

      .cls-2 {
        fill: #bcddaf;
      }

      .cls-3 {
        fill: #80be69;
      }

      .cls-4 {
        fill: #82bf6b;
      }

      .cls-5 {
        fill: #89c374;
      }

      .cls-6 {
        fill: #7f68ac;
      }

      .cls-7 {
        fill: #79bb5f;
      }

      .cls-8 {
        fill: #b9dbab;
      }
    </style>
  </defs>
  <path class="cls-2" d="M134.9,94.04c.57,1.68,1.2,3.35,1.7,5.05,.53,1.81,1.85,2.06,3.42,1.94-.91,1.19-2.51,2.36-2.55,3.59-.06,1.8,1.68,2.58,3.55,2.4-.66,1.33-1.76,2.81,1,3.01-.29,1.07-1.05,2.28-.79,3.19,1.24,4.26,2.64,8.48,4.26,12.61,.84,2.15,.42,2.89-1.79,3.42-3.52,.85-7.16,1.67-10.37,3.26-3.08,1.52-5.1,.94-7.51-1.14-4.39-3.8-9.51-4.5-14.9-2.46-7.22,2.73-11.56,8.34-13.63,15.43-.74,2.54-2.02,3.59-3.96,4.49-3,1.4-6.06,2.68-9.07,4.06-3.75,1.72-7.42,3.63-11.23,5.19-3.48,1.42-3.77,1.2-4.94-2.25-1.75-5.16-3.34-10.38-5.14-15.52-4.21-12.02-8.54-23.99-12.74-36-2.84-8.1-5.66-16.2-8.27-24.37-1.15-3.6-.88-3.72,2.59-4.62,6.22-1.63,12.46-3.2,18.65-4.91,1.76-.49,3.19-.52,4.54,.89,4.8,5.06,10.61,5.52,16.95,3.67,7.86-2.3,12.3-9.09,10.31-15.93,1.64-.36,3.27-.72,4.91-1.08-.06,3.15,.14,6.33-.23,9.43-1.22,10.09-.95,20.14,.45,30.17,.46,3.32,1.93,4.19,5.43,4.49,5.91,.51,11.79,1.38,17.7,1.74,2.57,.16,5.46-.04,7.7-1.12,1.3-.63,1.59-3.33,2.35-5.09,.52-1.18,1.07-2.35,1.61-3.52Z"/>
  <path class="cls-6" d="M134.9,94.04c-.54,1.17-1.1,2.34-1.61,3.52-.77,1.76-1.05,4.46-2.35,5.09-2.24,1.08-5.13,1.28-7.7,1.12-5.91-.36-11.8-1.22-17.7-1.74-3.5-.3-4.96-1.17-5.43-4.49-1.39-10.03-1.66-20.08-.45-30.17,.37-3.11,.17-6.29,.23-9.43,.75-9.26,1.49-18.53,2.25-27.79,.29-3.47,.75-6.94,.88-10.41,.09-2.26,1.19-2.87,3.15-2.74,6.79,.44,13.58,.85,20.37,1.32,2.48,.17,4.95,.71,7.41,.67,3.19-.06,4.96,1.43,5.9,4.27,.68,2.04,1.17,4.18,2.09,6.11,1.82,3.83,4.71,6.34,9.2,6.59,4.53,.25,8.23-1.23,10.46-5.3,1.1-2.01,1.91-4.23,2.5-6.45,.73-2.75,2.03-4.28,5.12-4.34,6.96-.12,13.91-.58,20.78,1.07,4.56,1.09,5.68,2.02,5.77,6.69,.15,7.65,.07,15.3-.26,22.94-.1,2.37,.34,3.28,2.7,3.61,4.65,.66,8.32,3.2,11.24,6.79,3.95,4.85,3.17,10.66-1.89,14.35-4.11,3-8.7,4.74-14.37,4.88,1.96,7.71-.6,14.89-1.15,22.23-.18,2.42-1.65,3.08-3.52,3.44-7.63,1.48-15.19,.61-22.71-.85-1.46-.28-2.88-.91-4.35-1.08-4.66-.54-5.13-.86-6.4-5.15-.37-1.27-.63-2.59-1.17-3.78-1.86-4.06-4.83-6.8-9.51-6.92-4.4-.11-7.66,1.85-9.51,5.94ZM187.91,28.04c-4.04-.26-8.32-.62-12.6-.8-4.25-.18-4.21-.08-5.38,4.25-.34,1.26-.96,2.47-1.58,3.64-5.73,10.85-23.76,12.58-31.8,1.63-1.64-2.24-2.54-5.01-3.96-7.43-.59-1-1.58-2.35-2.51-2.46-6.09-.73-12.22-1.15-18.34-1.7-1.91-.17-2.61,.64-2.69,2.56-.26,6.14-.86,12.27-1.02,18.41-.39,15.63-.56,31.26-.96,46.88-.07,2.56,.92,3.13,3.16,3.1,3.97-.06,7.95,.03,11.92,.12,4.31,.1,4.44,.16,5.61-3.93,3.69-12.99,20.49-15.84,28.91-6.98,2.31,2.43,3.83,5.75,5.2,8.89,.84,1.91,1.55,2.91,3.79,3.08,4.95,.37,9.88,1.02,14.79,1.76,3.14,.47,4.09-.04,4.43-3.08,.71-6.42,1.54-12.83,2.1-19.26,.26-3,1.6-4.39,4.54-4.91,2.92-.52,5.84-1.35,8.59-2.46,3.88-1.57,4.26-3.8,.67-5.94-2.87-1.71-6.41-2.57-9.76-3.14-2.25-.38-3.32-1.38-3.71-3.28-.3-1.45-.31-2.98-.27-4.47,.26-8.09,.58-16.17,.89-24.48Z"/>
  <path class="cls-7" d="M94.98,59.03c1.99,6.83-2.45,13.63-10.31,15.93-6.34,1.85-12.14,1.39-16.95-3.67-1.34-1.41-2.77-1.38-4.54-.89-6.2,1.72-12.43,3.29-18.65,4.91-3.47,.91-3.74,1.03-2.59,4.62,2.61,8.17,5.43,16.27,8.27,24.37,4.21,12.01,8.54,23.99,12.74,36,1.8,5.14,3.4,10.36,5.14,15.52,1.17,3.45,1.46,3.67,4.94,2.25,3.81-1.56,7.48-3.47,11.23-5.19,3.01-1.38,6.07-2.66,9.07-4.06,1.94-.91,3.22-1.95,3.96-4.49,2.08-7.09,6.41-12.7,13.63-15.43,5.39-2.04,10.52-1.34,14.9,2.46,2.4,2.08,4.42,2.66,7.51,1.14,3.22-1.58,6.85-2.41,10.37-3.26,2.21-.53,2.63-1.27,1.79-3.42-1.62-4.13-3.01-8.35-4.26-12.61-.27-.91,.5-2.12,.79-3.19,1.42-.68,2.79-2.06,4.17,.21,3.2,5.28,5.37,10.84,5.44,17.62,8.06-2.3,16.19-4.62,24.33-6.94,1.31,.33,2.63,.66,3.94,.99-7.43,2.77-14.86,5.56-22.31,8.29-4.12,1.51-4.05,1.41-2.37,5.4,2.69,6.39,5.25,12.85,7.86,19.27-.39,.74-.79,1.47-1.18,2.21-2.64-4.19-5.44-8.28-7.85-12.59-1.69-3.03-2.85-6.37-4.24-9.57-.73-1.68-1.6-2.12-3.46-1.18-4.88,2.47-9.93,4.62-14.85,7.01-1.52,.74-2.63,.75-4.01-.37-2.06-1.66-4.29-3.15-6.56-4.51-3.88-2.33-7.69-1.82-11.1,.97-3.66,2.98-6.87,6.39-7.73,11.28-.7,3.97-2.84,6.11-6.77,7.41-7.4,2.46-14.53,5.72-21.92,8.23-2.5,.85-2.17,1.89-1.49,3.56,2,4.92,4.09,9.82,5.99,14.78,1.07,2.78,1.89,5.66,2.69,8.53,.13,.48-.27,1.39-.7,1.66-.34,.21-1.36-.07-1.64-.45-1.46-1.99-3.11-3.93-4.09-6.16-2.34-5.32-4.37-10.77-6.49-16.19-1.67-4.27-1.64-4.24-5.87-3.03-5.26,1.51-10.51,3.11-15.85,4.31-1.76,.4-5.34-.13-5.4-.56-.36-2.9,2.47-2.95,4.34-3.58,5.35-1.79,10.79-3.34,16.16-5.08,3.34-1.08,3.73-1.76,2.53-5.02-.97-2.65-2.5-5.09-3.46-7.74-7.64-21.27-15.24-42.54-22.74-63.86-.97-2.76-1.3-5.75-2.08-9.36-7.41,2.49-14.75,4.95-22.1,7.42-1.89,.63-3.75,1.45-5.69,1.82-.68,.13-1.75-.71-2.28-1.39-.2-.26,.46-1.66,1.02-1.95,3.69-1.9,7.36-3.92,11.24-5.36,5.59-2.08,11.34-3.71,17.69-5.74-2.11-5.51-4.12-11.04-6.34-16.48-2.88-7.08-6.12-14.02-8.84-21.16-1.81-4.75-1.24-7.64,.64-7.39,3.25,.43,2.61,3.62,3.48,5.8,2.48,6.16,5.33,12.18,7.8,18.35,2.34,5.86,4.51,11.8,6.5,17.78,.88,2.65,1.92,3.36,4.68,2.34,5.76-2.12,11.71-3.7,17.47-5.83,3.45-1.28,6.01-.37,8.5,1.94,5.88,5.46,13.59,4.8,18.48-1.62,1.2-1.58,2.07-3.41,3.15-5.08,1.38-2.12,2.83-1.98,4.25,0Z"/>
  <path class="cls-4" d="M88.1,16.98c4.74,4.49,7.53,19.55,4.95,27.25-2.76-4.5-2.84-9.32-3.8-13.78-.93-4.28-3.47-8.64-1.14-13.48Z"/>
  <path class="cls-3" d="M141.02,107.02c-1.88,.18-3.61-.6-3.55-2.4,.04-1.22,1.65-2.39,2.55-3.59,1.73,.26,4.47-1.39,4.93,1.2,.4,2.22-1.29,4.26-3.93,4.78Z"/>
  <path class="cls-5" d="M90,47.32c-1.33,1.02-1.75,1.57-2.27,1.7-1.63,.39-4.82-1.58-5.12-3.21-.08-.46,.71-1.52,.76-1.5,2,.83,3.95,1.76,6.63,3Z"/>
  <path class="cls-8" d="M179.89,121.92c-1.31-.33-2.63-.66-3.94-.99,1.39-.32,2.77-.73,4.18-.92,.39-.05,.87,.55,1.31,.85-.52,.35-1.04,.71-1.55,1.06Z"/>
  <path class="cls-1" d="M161.89,157.08c.39-.74,.79-1.47,1.18-2.21,.32,.54,.84,1.05,.9,1.61,.07,.69-.26,1.41-.41,2.12-.56-.51-1.12-1.02-1.68-1.53Z"/>
</svg>