<?xml version="1.0" encoding="UTF-8"?>
<svg id="_Слой_1" data-name="Слой 1" xmlns="http://www.w3.org/2000/svg" viewBox="0 0 161 95">
  <defs>
    <style>
      .cls-1 {
        fill: #6d9d3e;
      }

      .cls-1, .cls-2, .cls-3, .cls-4, .cls-5, .cls-6, .cls-7, .cls-8 {
        stroke-width: 0px;
      }

      .cls-2 {
        fill: #bda8d3;
      }

      .cls-3 {
        fill: #689a38;
      }

      .cls-4 {
        fill: #6b9c3a;
      }

      .cls-5 {
        fill: #6c3b9d;
      }

      .cls-6 {
        fill: #6c3c9d;
      }

      .cls-7 {
        fill: #673599;
      }

      .cls-8 {
        fill: #689a37;
      }
    </style>
  </defs>
  <path class="cls-7" d="M115.85,61.81c-17.04,1.06-33.9-1.76-50.86-2.33-5.33-.18-10.67-.24-15.96-.83-2.66-.3-6.25.43-3.66-5.45,2.23-5.07,1.66-11.9.65-17.65-.53-3,.5-3.55,2.07-4.35,3.6-1.84,7.6-2.64,11.56-2.85,20.34-1.12,40.61-.98,60.44,4.67,1.42.41,2.84.99,4.11,1.73.61.36,1.39,1.66,1.22,1.91-4.57,6.46-1.46,13.78-2.11,20.62-.4,4.2-1.66,3.7-4.3,2.73-12.12-3.87-24.59-4.01-38.33-4.05,3.08,1.45,5.1.93,7.06,1.12,9.06.89,18.19,1.13,27.16,2.98,1.26.26,1.89.46.97,1.75ZM76.99,31.82c-8.31.09-16.67-.42-24.8,1.9-1.22.35-3.58.03-2.88,2.3,1.4,4.58.95,9.23.91,13.84-.02,2.66.93,2.73,3.22,2.64,20.83-.8,41.61-.44,62.2,3.25,2.43.44,3.25-.11,3.21-2.66-.08-4.32-.08-8.68.4-12.97.31-2.78-.39-3.68-3.12-4.29-12.9-2.91-25.95-4.07-39.15-4Z"/>
  <path class="cls-7" d="M27.94,39.87c-7.38.51-13.19-2.01-18.67-5.34-1.88-1.14-1.61-3.04,0-4.67,2.13-2.16,4.62-3.77,7.2-5.32C31.96,15.29,48.98,9.48,65.57,2.68c3.06-1.25,6,0,8.75.79,28.1,8.11,55.94,16.95,82.3,29.85,1.38.68,3.49.92,3.11,3.26-.32,1.94-1.9,2.6-3.58,2.98-6.3,1.43-12.58,3.11-19.76,1.35,4.77-3.77,10.34-3.28,15.86-5.27-10.3-4.84-20.35-8.52-30.45-12.05-17.24-6.04-34.56-11.86-51.83-17.82-.97-.33-1.68-.73-2.74-.08-14.21,8.74-30.44,13.24-44.96,21.35-2.87,1.6-5.89,2.95-8.98,4.49,4.65,2.95,11.02,2.33,14.65,8.35Z"/>
  <path class="cls-8" d="M56.9,77.22c2.32,4.65,4.11,8.74,2.49,13.86,10.46-3.24,20.83-4.31,31-6.38.97-.2,1.96-.44,2.94-.48,1.47-.06,3.37-.28,3.69,1.62.35,2.08-1.72,2.07-3.07,2.45-13.62,3.9-27.3,7.07-41.66,4.73-5.87-.96-8.87-5.83-5.84-10.25,1.19-1.73,2.96-3.21,5.02-1.66,2.03,1.53,1.45,2.97-.9,3.99-1.03.45-.93,1.88-.14,2.55,1.01.86,2.39,1.13,3.76.71,1.13-.35,1.64-1.17,1.3-2.29-.72-2.37-1.37-4.79-2.34-7.06-2.01-4.68-1.77-5.47,3.35-5.82,4.47-.3,8.98-.08,13.47.06,7.15.23,14.3.54,21.44.94,2,.11,5.24-.41,5.24,2.18,0,2.49-3.19,1.67-4.99,1.72-11.31.31-22.61-.06-34.77-.86Z"/>
  <path class="cls-3" d="M148.82,67.96c-11.88,6.28-24.22,8.21-37.22,5.72,4.92-3.87,10.9-3.31,16.48-4.31,6.67-1.2,13.49-1.63,19.36-5.72,2.51-1.75,4.19.89,5.12,2.44,2.44,4.05,3.13,8.72,2.9,13.42-.08,1.62-.61,3.54-2.81,3.46-2.46-.09-1.45-2.21-1.52-3.45-.21-3.98-.53-7.91-2.31-11.55Z"/>
  <path class="cls-4" d="M2.79,63.76c6.95-5.95,5.18-13.75,5.44-20.99.04-1,.03-2,.15-2.99.15-1.16.38-2.51,1.82-2.59,1.91-.1,1.91,1.53,1.95,2.82.08,2.16.12,4.33-.04,6.48-.38,5.05-.31,9.88,3.84,13.72,1.06.98,2.91,2.74,1.03,4.18-2.12,1.62-3.05-.82-4.16-2.15-.41-.49-.8-.99-1.43-1.77-.33,1.24-.43,2.21-.84,3.01-.82,1.6-.19,4.89-2.92,4.31-2.2-.47-.16-3.24-1-5.11-1.2.33-2.53.7-3.85,1.06Z"/>
  <path class="cls-1" d="M153.69,84.9c-12.44,4.05-25.14,3.4-37.89,1.78,12.41-4.31,25.2-1.9,37.89-1.78Z"/>
  <path class="cls-6" d="M113.79,83.15c-.22,2.07-.53,4.42-2.88,4.68-2.69.3-1.66-2.26-1.93-3.67-.57-2.98-1.73-5.7-3.3-8.27-.69-1.13-1.62-2.56-.32-3.59,1.49-1.17,2.71.17,3.82,1.19,2.84,2.61,4.1,5.96,4.61,9.66Z"/>
  <path class="cls-2" d="M115.85,61.81c.92-1.28.29-1.49-.97-1.75-8.96-1.85-18.09-2.09-27.16-2.98-1.95-.19-3.98.33-7.06-1.12,13.73.03,26.21.17,38.33,4.05-.68,1.24-1.5,2.25-3.15,1.8Z"/>
  <path class="cls-5" d="M105.78,81.57c.05,1.93-.41,3.86-2.25,4.08-2.45.3-1.18-2.16-1.72-3.32-.83-1.79-1.49-3.67-2.28-5.48-.38-.88-1.32-1.79-.34-2.64,1.08-.94,2.14-.26,3.06.55,2.1,1.85,3.1,4.25,3.53,6.81Z"/>
</svg>