<?xml version="1.0" encoding="UTF-8"?>
<svg id="_Слой_1" data-name="Слой 1" xmlns="http://www.w3.org/2000/svg" viewBox="0 0 216 63">
  <defs>
    <style>
      .cls-1 {
        fill: #dedede;
      }

      .cls-2 {
        fill: #7f68ad;
      }

      .cls-3 {
        fill: #e1e1e1;
      }

      .cls-4 {
        fill: #e6e5e4;
      }

      .cls-5 {
        fill: #7f69ad;
      }

      .cls-6 {
        fill: #e4e4e4;
      }

      .cls-7 {
        fill: #e5e5e4;
      }

      .cls-8 {
        fill: #e2071a;
      }

      .cls-9 {
        fill: #e3e3e2;
      }

      .cls-10 {
        fill: #dcdbdc;
      }

      .cls-11 {
        fill: #d2d2d2;
      }

      .cls-12 {
        fill: #345aa5;
      }

      .cls-13 {
        fill: #e3e3e3;
      }
    </style>
  </defs>
  <path class="cls-2" d="M82.21,38.92c-6.81-.31-12.6-1.95-15.67-8.77-1.88-4.18-1.94-6.52,.94-10.05,1.27-1.55,2.7-2.95,4.43-4,7.86-4.81,16.2-6.63,25.28-4.1,8.45,2.35,10.56,8.52,5.23,15.44-3.67,4.77-9.01,7.2-13.89,9.93-1.72,5.48,1.64,11.72-3.12,17.02-5.88-4.54-1.88-10.55-3.19-15.46Zm.59-20.98c-3.56,.45-6.29,1.94-8.81,3.8-1.88,1.38-3.7,2.89-3.07,5.72,.66,2.95,2.69,4.58,5.38,5.23,2.02,.49,4.22,.9,6.5-.51v-14.24Zm5.51-.83c-.43,4.55-.25,8.9,.11,13.73,5.25-2.35,9.32-5.25,11.58-10.37-3.31-3.81-7.28-3.83-11.69-3.37Z"/>
  <path class="cls-2" d="M172.3,26.98c0,3.24-.77,6.24-2.3,9.1-3.2,5.96-7.47,11.06-13.03,14.85-6.65,4.53-12.46,2.72-15.85-4.54-5.76-12.31,1.77-29.82,14.77-34.36,6.95-2.43,14.3,2.13,15.96,10,.34,1.61,.32,3.3,.46,4.96Zm-6.11-.97c-.01-.14,0-1.15-.18-2.12-1.1-6.08-5.86-8.28-10.87-4.78-5.64,3.95-9.07,9.62-10.89,16.15-.75,2.7-.33,5.61,.69,8.31,1.75,4.62,4.96,5.76,8.9,2.8,4.41-3.31,7.9-7.51,10.58-12.38,1.23-2.24,1.82-4.6,1.77-7.99Z"/>
  <path class="cls-2" d="M206.98,17.02c-11.62,.01-19.79,9-19.27,20.59,.12,2.77,1.23,4.19,4.05,4.7,3.9,.71,7.61-.24,11.34-.87,3.53-.59,7.04-.84,11.03-1-5.91,8.01-19.12,11.79-27.28,8.28-4.16-1.79-7.17-6.43-6.63-11.34,.93-8.53,4.2-16.07,10.83-21.82,3.02-2.62,6.64-3.93,10.63-3.29,2.39,.38,4.93,1.1,5.29,4.75Z"/>
  <path class="cls-5" d="M116.98,18.3c0,6.51,.12,12.82-.05,19.12-.1,3.65-.6,7.29-1.02,10.93-.25,2.14-1.09,4.07-3.7,3.73-2.47-.32-2.41-2.4-2.29-4.28,.7-10.46,1.39-20.92,2.17-31.37,.19-2.54,.93-4.04,4.33-3.95,5.45,.14,10.82-1.74,16.35-1.51,2.63,.11,6.19-.26,6.22,3.27,.03,3.74-3.6,2.46-5.87,2.51-5.17,.11-10.32,.21-16.13,1.56Z"/>
  <path class="cls-12" d="M28.75,35.01c7.58-3.2,14.74-6.26,21.94-9.2,.76-.31,1.46,.59,1.89,1.48-.29,2.32-2.13,3.58-3.81,4.88-5.87,4.57-12.69,7.19-19.69,9.43-1.33,.43-2.64,.34-3.89-.21-6.71-2.98-13.25-6.26-18.75-11.24-.85-.77-1.61-1.68-2.24-2.65-.56-.87-.6-1.92,.09-2.81,.67-.86,1.6-1.09,2.67-.88,1.69,.34,3.02,1.36,4.43,2.23,5.53,3.4,11.38,6.18,17.35,8.96Z"/>
  <path class="cls-8" d="M28.28,46.64c5.97-2.71,11.99-5.44,18.01-8.18,.9-.41,1.76-.94,2.69-1.28,.82-.3,1.63-.15,2.27,.54,.83,.88,.67,1.79,.09,2.72-.9,1.43-2.18,2.49-3.52,3.49-5.66,4.25-12.13,6.8-18.77,9.01-1.66,.55-3.33,.54-4.87-.17-6.33-2.93-12.61-5.99-17.93-10.64-.5-.44-1-.88-1.44-1.38-1.21-1.38-2.68-2.78-1.06-4.74,1.45-1.74,3.04-.72,4.48,.07,3.2,1.76,6.3,3.69,9.53,5.4,3.37,1.78,6.84,3.37,10.5,5.16Z"/>
  <path class="cls-6" d="M9.99,21.01c-3.21-.99-5.51-2.87-5.96-6.38-.21-1.59,.26-3.09,2.05-3.47,3.57-.76,5.81,1.46,7.94,3.82l-.03,.03c-2.7-.16-4.59-2.47-7.24-2.79-2.12,1.21-2.14,2.66-.63,4.38,1.28,1.47,3.02,2.54,3.89,4.37l-.02,.03Z"/>
  <path class="cls-13" d="M14.02,14.98c4.33,1.06,7.94,3.69,11.92,5.52,1.96,.9,3.85,1.75,6.05,1.49h.01c-.52,1.13-1.36,2.33-2.6,1.62-5.12-2.89-11.09-4.29-15.41-8.6l.03-.03Z"/>
  <path class="cls-13" d="M34,20.99c5.15-2.56,10.28-5.16,15.47-7.65,1.19-.57,2.59-.77,3.55,.64l-.04,.03c-2.65-.29-4.59,1.43-6.78,2.41-3.98,1.76-7.62,4.4-12.19,4.58,0,0-.01-.01-.01-.01Z"/>
  <path class="cls-4" d="M32.02,30.02c-1.6,1.8-3.89,1.34-5.5,.8-3.8-1.28-7.73-2.6-10.54-5.79l.04-.04c5.35,1.59,9.97,5.5,15.97,5l.03,.03Z"/>
  <path class="cls-9" d="M15.98,25.03c-2.59-.45-4.71-1.6-5.99-4.01l.02-.03c2.45,.65,4.51,1.9,6.01,4l-.04,.04Z"/>
  <path class="cls-7" d="M45,24c-1.34,2.33-3.49,3.02-6,3h0c1.71-1.6,3.68-2.65,6-3.01h0Z"/>
  <path class="cls-3" d="M51,19.99c-.84,1.65-1.96,2.94-3.99,3.01h0c.86-1.64,1.97-2.95,4.01-3h-.01Z"/>
  <path class="cls-7" d="M39,27.01c-1.28,1.62-3.03,2.08-5,2.01l-.02-.03c1.3-1.6,3.04-2.07,5-1.99h0Z"/>
  <path class="cls-3" d="M53.02,13.98c1.39,1.34,2.65,2.69-.02,4.01h.01c0-1.32-.02-2.65-.03-3.98l.04-.03Z"/>
  <path class="cls-1" d="M31.99,21.99c.38-.9,1.18-.99,2-1h.01c-.38,.92-1.17,1.01-2,1.02h-.01Z"/>
  <path class="cls-10" d="M47,23c-.38,.91-1.17,.99-2,1h0c.38-.91,1.17-1.01,2-1.01h0Z"/>
  <path class="cls-7" d="M34.01,29.01c-.38,.9-1.17,.98-1.99,1l-.03-.03c.39-.89,1.17-.99,2-.99l.02,.03Z"/>
  <path class="cls-1" d="M52.99,18c-.34,.33-.67,.67-1.01,1v.02c.35-.34,.68-.67,1.02-1.01h-.01Z"/>
  <path class="cls-11" d="M51.99,19c-.12,.54-.46,.86-.99,1h.01c.13-.52,.46-.85,.99-.98v-.02Z"/>
</svg>