<?xml version="1.0" encoding="UTF-8"?>
<svg id="_Слой_1" data-name="Слой 1" xmlns="http://www.w3.org/2000/svg" viewBox="0 0 254 59">
  <defs>
    <style>
      .cls-1 {
        fill: #e20619;
      }

      .cls-1, .cls-2, .cls-3, .cls-4 {
        stroke-width: 0px;
      }

      .cls-2 {
        fill: #345aa5;
      }

      .cls-3 {
        fill: #673499;
      }

      .cls-4 {
        fill: #663499;
      }
    </style>
  </defs>
  <path class="cls-2" d="M1,22c2.51-1.64,4.87-1.34,7.37.25,7.16,4.55,14.62,10.64,22.55,11.07,7.73.42,15.37-5.47,22.79-9.18,1.57-.79,3.47-2.23,4.96-.34,1.62,2.05.03,3.77-1.49,5.12-7.64,6.81-16.86,10.5-26.56,13.14-1.56.42-3.24-.02-4.84-.75-9.1-4.18-17.88-8.8-24.78-16.31v-3Z"/>
  <path class="cls-1" d="M1,35c2.38-1.27,4.42-.43,6.49.89,6.32,4.02,13.09,7.2,19.76,10.58,2.33,1.18,4.08,1.18,6.4.06,6.27-3.03,12.7-5.74,19.05-8.61,1.79-.81,3.74-2.35,5.36-.26,1.69,2.19-.38,3.73-1.79,5-7.59,6.87-16.94,10.33-26.52,13.23-1.99.6-3.87-.58-5.71-1.38-8.42-3.67-16.07-8.53-23.04-14.5v-5Z"/>
  <path class="cls-4" d="M95.01,46.43c0-1.17-.17-2.36.03-3.49.67-3.79-.9-4.69-4.59-4.78-7.87-.2-13.72-5.23-15.81-12.95-1.03-3.81.89-6.8,3.27-9.46,4.37-4.91,10.28-6.9,16.32-9.03,7.42-2.62,14.38-1.1,21.12,1.31,7.78,2.79,9.37,9.3,4.49,15.97-3.61,4.94-8.44,8.58-14.01,10.94-3.19,1.35-4.13,3.15-3.92,6.38.22,3.31-.05,6.65-.14,9.98-.07,2.49-.54,4.96-3.68,4.86-2.85-.1-3.19-2.4-3.13-4.74.04-1.66,0-3.33,0-4.99h.03ZM95.72,21.34c-.32-1.81,1.64-5.76-.62-6.96-2.72-1.45-5.82,1.41-8.53,2.95-1.14.65-2.12,1.59-3.15,2.42-3.6,2.91-2.91,6.13-.23,9.03,2.81,3.04,6.79,4.02,10.55,2.92,3.28-.96,1.4-4.58,1.96-6.98.18-.79.03-1.66.03-3.38ZM102,21.12c.53,2.26-1.41,6.41.99,7.31,2.37.89,5.11-2.39,7.39-4.27,1.52-1.26,2.87-2.78,4.11-4.33,2.1-2.64,1.18-4.43-1.71-5.77-7.84-3.63-10.83-1.82-10.77,7.05Z"/>
  <path class="cls-4" d="M202.05,24.22c-.02,10.94-11.72,27.28-22.12,30.89-5.95,2.07-11.34-.1-14.2-5.71-7.68-15.01-.15-35.37,15.57-42.11,10.75-4.61,20.78,3.57,20.75,16.93ZM195.01,22.96c-.08-2.98-.95-7.23-5.54-9.27-4.26-1.9-7.26,1.04-10.12,3.51-4.49,3.87-7.6,8.74-9.66,14.27-1.83,4.9-1.61,9.83.56,14.51,1.39,2.99,3.74,4.48,7.32,3.13,7.26-2.74,17.37-16.88,17.45-26.15Z"/>
  <path class="cls-3" d="M251.9,40.91c-7.03,9.29-22.43,13.58-32.32,9.46-4.75-1.98-7.54-5.58-7.69-10.68-.34-12.1,4.43-22.05,13.85-29.5,4.38-3.47,9.64-4.45,15.01-1.93,1.52.71,2.96,1.96,2.35,3.9-.6,1.92-2.2.78-3.4.65-5.54-.56-9.66,1.83-12.78,6.2-3.44,4.82-5.6,10.17-6.46,16.02-.81,5.49,1.09,7.69,6.64,8.01,4.54.26,8.94-.66,13.34-1.48,3.61-.67,7.2-.95,11.44-.66Z"/>
  <path class="cls-3" d="M136.23,29.75c-.15,6.64-.09,13.31-1.21,19.89-.44,2.6-1.09,5.34-4.3,5.05-3.51-.31-3.02-3.34-2.86-5.83.74-11.61,1.44-23.23,2.27-34.84.28-3.94.59-7.26,6.59-6.65,5.32.54,10.84-1.1,16.29-1.61,1.97-.18,3.99,0,5.97.23,2.17.26,4,1.42,3.8,3.78-.22,2.58-2.43,2.87-4.54,2.68-6.35-.57-12.59.64-18.88,1.08-2.61.18-3.31,1.23-3.18,3.73.21,4.15.06,8.31.06,12.47Z"/>
</svg>