<?xml version="1.0" encoding="UTF-8"?>
<svg id="_Слой_1" data-name="Слой 1" xmlns="http://www.w3.org/2000/svg" viewBox="0 0 160 137">
  <defs>
    <style>
      .cls-1 {
        fill: #ad92c8;
      }

      .cls-1, .cls-2, .cls-3, .cls-4, .cls-5, .cls-6, .cls-7 {
        stroke-width: 0px;
      }

      .cls-2 {
        fill: #b2cb99;
      }

      .cls-3 {
        fill: #71a043;
      }

      .cls-4 {
        fill: #639;
      }

      .cls-5 {
        fill: #709f41;
      }

      .cls-6 {
        fill: #669934;
      }

      .cls-7 {
        fill: #79a54d;
      }
    </style>
  </defs>
  <path class="cls-6" d="M1,51c6.82-3.01,13.56-6.25,20.91-7.76,3.24-.67,1.9-2.39,1.24-4-2.96-7.23-5.98-14.44-8.92-21.68-.87-2.15-1.63-4.36-2.27-6.59-.31-1.09-.44-2.51,1.05-2.93,1.55-.44,1.84.89,2.26,2,3.69,9.62,7.59,19.16,11.04,28.87,1.16,3.26,2.51,3.67,5.44,2.5,3.85-1.54,7.89-2.63,11.78-4.08,2.5-.93,4.44-.33,6.41,1.29,5.81,4.79,11.12,3.8,15.39-2.58,1.01-1.51,1.37-5.48,4.74-2.12,1.63,4.8-1.46,7.57-4.63,10.01-4.15,3.19-9.43,4.24-13.47,1.17-4.37-3.32-8.07-2.45-12.31-1.03-1.42.47-2.86.86-4.3,1.29-7.2,2.12-7.59,2.35-4.82,9.42,6.79,17.34,12.98,34.88,18.69,52.59.88,2.74,2.34,3.23,4.88,1.9,3.97-2.08,7.97-4.14,12.11-5.82,3.12-1.26,4.83-3.02,6.1-6.36,3.95-10.43,12.61-13.03,22.21-7.12,1.3.8,2.29.88,3.68.36,2.64-.99,5.35-1.78,8.06-2.55,2.25-.63,2.81-1.59,1.78-3.93-1.67-3.77-3.11-7.68-3.03-11.94,6.65.1,6.78,6.04,7.37,9.91.81,5.34,2.73,4.4,6.21,3.07,4.03-1.53,8.25-2.56,12.42-3.68,1.01-.27,2.76-.89,3.06.22.29,1.1-1.54,1.51-2.56,1.89-4.52,1.68-9.04,3.34-13.64,4.79-2.66.84-3.33,1.85-2.02,4.59,2.36,4.94,4.28,10.09,6.33,15.18.22.54.05,1.22.07,1.84-.53-.33-1.17-.55-1.57-1-4.04-4.39-6.07-9.91-8.33-15.26-1.18-2.8-2.2-3.68-4.88-1.69-1.44,1.07-3.34,1.49-4.9,2.43-4.25,2.56-7.84,2.55-11.96-.95-4.26-3.62-10.6-2.46-12.65,3.75-3.57,10.83-12.62,12.75-21.03,15.59-5.36,1.81-5.29,3.77-3.17,7.97,1.86,3.69,3.08,7.71,4.49,11.62.41,1.14,1.52,2.79-.14,3.44-1.4.55-2.35-1.16-2.85-2.28-2.11-4.7-4.4-9.37-5.91-14.28-1.13-3.68-2.66-4.08-6-2.89-4.05,1.45-8.32,2.29-12.51,3.35-.97.24-2.21.34-2.58-.81-.4-1.26.87-1.64,1.75-1.93,4.1-1.36,8.18-2.84,12.36-3.87,3.59-.88,4.54-2.43,3.02-5.92-7.55-17.41-12.75-35.68-19.46-53.4-.24-.62-.69-1.29-.62-1.88.99-7.62-3.66-4.44-6.83-3.46-4.76,1.47-9.45,3.2-14.13,4.91-1.22.45-2.26.18-3.36-.18v-2Z"/>
  <path class="cls-3" d="M65,1c3.58,5.54,4.06,11.81,4.23,18.14.02.81.48,2.24-.97,2.31-.94.05-1.06-1.11-1.18-1.89-.94-6.2-3.41-12.15-3.09-18.56h1Z"/>
  <path class="cls-1" d="M76.26,2.17c-.09-.39-.17-.78-.26-1.17,3.67,0,7.33,0,11,0,.04.28.08.55.14.83-3.63.11-7.25.23-10.88.34Z"/>
  <path class="cls-2" d="M105.01,71.93c-.08,4.25,1.36,8.17,3.03,11.94,1.03,2.34.47,3.3-1.78,3.93-2.71.76-5.43,1.56-8.06,2.55-1.39.52-2.38.44-3.68-.36-9.6-5.9-18.26-3.31-22.21,7.12-1.26,3.34-2.98,5.1-6.1,6.36-4.15,1.68-8.15,3.74-12.11,5.82-2.54,1.33-4,.84-4.88-1.9-5.71-17.71-11.9-35.26-18.69-52.59-2.77-7.08-2.38-7.3,4.82-9.42,1.43-.42,2.88-.81,4.3-1.29,4.24-1.42,7.94-2.29,12.31,1.03,4.04,3.07,9.32,2.03,13.47-1.17,3.17-2.44,6.27-5.21,4.63-10.01,1.21-.34,2.42-.67,3.63-1.01.01.99.17,2.01.01,2.98-1.25,7.78-.76,15.61-.51,23.41.2,6.37,1.56,7.41,7.79,7.67,2.32.1,4.66.21,6.95.57,8.37,1.31,9.16.93,12.22-6.52,1.38,1.51,1.06,4,2.96,5.21-2.49,3.93.28,3.81,2.92,3.8-.34.63-.69,1.26-1.03,1.89Z"/>
  <path class="cls-4" d="M100.15,61.02c-3.06,7.45-3.84,7.83-12.22,6.52-2.29-.36-4.63-.47-6.95-.57-6.23-.27-7.59-1.31-7.79-7.67-.25-7.8-.74-15.63.51-23.41.16-.97,0-1.98-.01-2.98.85-10.25,1.71-20.5,2.56-30.75,3.63-.11,7.25-.23,10.88-.34,4.3.41,8.6.95,12.91,1.18,3.1.17,3.71,2.29,4.34,4.61.95,3.51,2.57,6.54,6.21,7.91,4.9,1.84,9.95-.91,11.51-7.14,1-4.01,3.29-4.96,6.66-5.02,2.16-.04,4.33.1,6.48.29q11.84,1.05,11.76,13.19c0,1.17.07,2.34-.06,3.5-.57,5.25-1.23,9.98,6.18,11.55,3.6.76,6.31,4.53,5.8,8.96-.57,4.92-4.48,7.2-8.57,7.92-4.66.82-5.91,2.83-5.33,7.21.3,2.23-.3,4.62-.69,6.91-1.21,7.04-1.35,6.87-8.34,7.24-5.92.31-11.51-1.4-17.26-2.11-3.09-.38-2.71-3.44-3.46-5.48-1.3-3.55-3.3-6.21-7.35-6.49-3.75-.25-6.4,1.41-7.76,4.98ZM80.44,36.18c-.28,0-.57,0-.85,0,0,4.83.13,9.66-.03,14.48-.38,11.62-.44,11.53,11.29,11.75,2.25.04,3.11-.52,3.86-2.63,2.46-6.94,6.33-9.77,12.76-9.82,6.14-.05,10.96,3.6,13.35,10.12.33.9.03,2.36,1.11,2.61,5.04,1.16,10.4,2.42,15.24.91,2.45-.77.9-5.42,1.67-8.22.13-.47.08-.99.11-1.49.37-5.82,1.06-11.26,8.86-11.58,1.7-.07,4.58-.68,4.35-3.08-.21-2.19-2.66-3.24-4.77-3.91q-7.5-2.36-7.41-10.19c.03-2.33.07-4.66.21-6.99.56-8.91.57-8.84-8.74-8.92-2.43-.02-3.8.25-4.52,3.12-1.43,5.7-5.49,8.94-11.36,9.71-6.6.86-12.72-1.09-14.96-7.3-2.28-6.32-6.57-6.36-11.51-6.57-1.5-.06-3.03.06-4.49-.21-3.14-.58-4.2.87-4.19,3.76.03,8.15.01,16.3.01,24.46Z"/>
  <path class="cls-5" d="M106.03,70.03c-2.64.02-5.42.14-2.92-3.8,1.64-.27,3.66-1.42,4.75.35.8,1.31-.65,2.56-1.83,3.44Z"/>
  <path class="cls-7" d="M63.67,26.04c-1.42-.43-2.86-.96-3.2-2.63-.16-.77.69-1.23,1.31-1.02,1.37.46,2.95.86,3.24,2.63.16.96-.7.9-1.36,1.02Z"/>
</svg>